<?xml version="1.0" encoding="UTF-8"?>
<svg width="46px" height="46px" viewBox="0 0 46 46" version="1.1" xmlns="http://www.w3.org/2000/svg" xmlns:xlink="http://www.w3.org/1999/xlink">
    <!-- Generator: Sketch 54.1 (76490) - https://sketchapp.com -->
    <title>Group 2</title>
    <desc>Created with Sketch.</desc>
    <g id="Page-1" stroke="none" stroke-width="1" fill="none" fill-rule="evenodd">
        <g id="Group-2">
            <circle id="Oval" fill="#0074E4" cx="23" cy="23" r="23"></circle>
            <g id="phone" transform="translate(12.367925, 11.500000)" fill-rule="nonzero">
                <g id="Group">
                    <rect id="Rectangle" fill="#000000" opacity="0" x="0" y="0" width="23" height="23"></rect>
                    <path d="M15.8125,14.375 C14.375,15.8125 14.375,17.25 12.9375,17.25 C11.5,17.25 10.0625,15.8125 8.625,14.375 C7.1875,12.9375 5.75,11.5 5.75,10.0625 C5.75,8.625 7.1875,8.625 8.625,7.1875 C10.0625,5.75 5.75,1.4375 4.3125,1.4375 C2.875,1.4375 0,5.75 0,5.75 C0,8.625 2.95361328,14.4536133 5.75,17.25 C8.54638672,20.0463867 14.375,23 17.25,23 C17.25,23 21.5625,20.125 21.5625,18.6875 C21.5625,17.25 17.25,12.9375 15.8125,14.375 Z" id="Path" fill="#FFFFFF"></path>
                </g>
            </g>
        </g>
    </g>
</svg>