<?xml version="1.0" encoding="UTF-8"?>
<svg width="148px" height="136px" viewBox="0 0 148 136" version="1.1" xmlns="http://www.w3.org/2000/svg" xmlns:xlink="http://www.w3.org/1999/xlink">
    <!-- Generator: Sketch 54.1 (76490) - https://sketchapp.com -->
    <title>Group 27</title>
    <desc>Created with Sketch.</desc>
    <defs>
        <linearGradient x1="0%" y1="50%" x2="100%" y2="50%" id="linearGradient-1">
            <stop stop-color="#FF8E5A" offset="0%"></stop>
            <stop stop-color="#FFB251" offset="100%"></stop>
        </linearGradient>
        <linearGradient x1="0%" y1="50%" x2="100%" y2="50%" id="linearGradient-2">
            <stop stop-color="#FF8E5A" offset="0%"></stop>
            <stop stop-color="#FFB251" offset="100%"></stop>
        </linearGradient>
        <linearGradient x1="0%" y1="50%" x2="100%" y2="50%" id="linearGradient-3">
            <stop stop-color="#FF8E5A" offset="0%"></stop>
            <stop stop-color="#FFB251" offset="100%"></stop>
        </linearGradient>
        <path d="M6.23958608,5.08630457 C6.50635805,4.60972165 6.64538006,4.05539825 6.60780655,3.47140578 C6.56271833,2.68123205 6.20952727,1.95678095 5.61962306,1.43099995 C5.0259615,0.905218951 4.26321912,0.641577336 3.47417527,0.688522068 C1.84348465,0.785040437 0.592286556,2.19112905 0.689977699,3.82255238 C0.735065918,4.61235055 1.08825697,5.33717722 1.68191853,5.86258266 C2.27182274,6.38836366 3.03456513,6.65200527 3.82360897,6.60506054 C4.87191008,6.54309349 5.76240243,5.94069869 6.23958608,5.08630457 Z M0.460779248,1.87566045 C1.04692611,0.823722896 2.14407279,0.0831228032 3.4328444,0.00650900046 C4.40599848,-0.0509513516 5.34157904,0.273530636 6.07050526,0.920241265 C6.79943148,1.56732745 7.23528427,2.4589018 7.29164455,3.43122109 C7.4118798,5.43782672 5.87512297,7.16802177 3.86493984,7.28669805 C2.89178577,7.34453396 1.9562052,7.02005197 1.22727898,6.37334134 C0.498352764,5.72663071 0.0662573248,4.83505636 0.00613969839,3.86273707 C-0.0351911698,3.14467045 0.133889654,2.46190627 0.460779248,1.87566045 L0.460779248,1.87566045 Z" id="path-4"></path>
        <linearGradient x1="0%" y1="50%" x2="100%" y2="50%" id="linearGradient-6">
            <stop stop-color="#FF8E5A" offset="0%"></stop>
            <stop stop-color="#FFB251" offset="100%"></stop>
        </linearGradient>
        <path d="M4.93473684,3.35939984 L1.15649123,1.51307638 L1.44280702,5.70671596 L4.93473684,3.35939984 Z M0.140350877,0.418522425 C0.179649123,0.349516716 0.230175439,0.289487361 0.303157895,0.244044577 C0.449122807,0.14193857 0.645614035,0.128474042 0.808421053,0.20870019 L6.1754386,2.83147812 C6.33824561,2.91114325 6.45052632,3.07271759 6.46175439,3.25448872 C6.47298246,3.43625985 6.38877193,3.61129872 6.23719298,3.71284371 L1.28,7.04699755 C1.12842105,7.14798152 0.93754386,7.16200707 0.774736842,7.08178092 C0.606315789,7.00099375 0.499649123,6.83998043 0.488421053,6.6582093 L0.0785964912,0.701838543 C0.0673684211,0.601415602 0.0898245614,0.503236749 0.140350877,0.418522425 L0.140350877,0.418522425 Z" id="path-7"></path>
        <linearGradient x1="0%" y1="50%" x2="100%" y2="50%" id="linearGradient-9">
            <stop stop-color="#FF8E5A" offset="0%"></stop>
            <stop stop-color="#FFB251" offset="100%"></stop>
        </linearGradient>
        <path d="M4.27688576,2.78511829 L1.28798344,1.30044297 L1.51448273,4.67265445 L4.27688576,2.78511829 Z M0.484133045,0.420284498 C0.515221182,0.364795266 0.555191644,0.316524145 0.612926755,0.279982455 C0.728396978,0.197876437 0.883837663,0.187049269 1.01263137,0.251561141 L5.25838266,2.3606031 C5.38717637,2.42466384 5.47599962,2.55458985 5.48488194,2.70075661 C5.49376426,2.84692337 5.42714683,2.98767654 5.30723544,3.06933143 L1.38568902,5.75040873 C1.26577763,5.83161249 1.11477811,5.84289079 0.985984399,5.77837892 C0.852749526,5.71341591 0.76836744,5.58394104 0.759485115,5.43777428 L0.435280258,0.648106143 C0.426397933,0.567353521 0.444162583,0.488405426 0.484133045,0.420284498 L0.484133045,0.420284498 Z" id="path-10"></path>
        <linearGradient x1="0%" y1="50%" x2="100%" y2="50%" id="linearGradient-12">
            <stop stop-color="#FF8E5A" offset="0%"></stop>
            <stop stop-color="#FFB251" offset="100%"></stop>
        </linearGradient>
        <path d="M7.80350877,1.82724871 C7.06470175,1.48222017 6.22315789,1.33635444 5.35691228,1.45080294 C4.18357895,1.60508399 3.14049123,2.20649959 2.42021053,3.1445284 C1.69992982,4.08255722 1.38835088,5.24555586 1.54273684,6.41753085 C1.86105263,8.83777983 4.09150877,10.5472139 6.51340351,10.2285534 C7.68617544,10.0748334 8.72870175,9.47285675 9.44898246,8.53482794 C10.1698246,7.59679913 10.4808421,6.43436151 10.3264561,5.2618255 C10.1215439,3.70779451 9.12898246,2.44661702 7.80350877,1.82724871 Z M3.63508772,10.7766719 C2.00364912,10.014804 0.782035088,8.46301712 0.530526316,6.55049307 C0.340210526,5.10810546 0.723649123,3.67806034 1.61010526,2.52347703 C2.4965614,1.36889372 3.77992982,0.628905681 5.22329825,0.438719217 C8.20266667,0.0471258494 10.946807,2.15039739 11.3386667,5.12886328 C11.5289825,6.57068986 11.1455439,8.001296 10.2590877,9.15587932 C9.37319298,10.3099016 8.09038596,11.0504507 6.64645614,11.2406371 C5.58035088,11.3808926 4.544,11.2013656 3.63508772,10.7766719 L3.63508772,10.7766719 Z" id="path-13"></path>
        <linearGradient x1="0%" y1="50%" x2="100%" y2="50%" id="linearGradient-15">
            <stop stop-color="#FF8E5A" offset="0%"></stop>
            <stop stop-color="#FFB251" offset="100%"></stop>
        </linearGradient>
        <linearGradient x1="0%" y1="50%" x2="100%" y2="50%" id="linearGradient-16">
            <stop stop-color="#FF8E5A" offset="0%"></stop>
            <stop stop-color="#FFB251" offset="100%"></stop>
        </linearGradient>
        <path d="M3.89333333,2.49318184 C3.76364912,2.43203044 3.70750877,2.27887143 3.76814035,2.14871432 L4.48449123,0.617685241 C4.54512281,0.488089155 4.69894737,0.432547975 4.82863158,0.492577331 C4.95831579,0.553167709 5.01445614,0.707448763 4.95382456,0.837044849 L4.23747368,2.36807393 C4.17684211,2.49767002 4.02245614,2.5532112 3.89333333,2.49318184 Z M1.93347368,6.68345529 C1.80378947,6.62286491 1.74764912,6.46858385 1.8082807,6.33954879 L2.56112281,4.72997662 C2.62175439,4.60094156 2.77557895,4.54483936 2.90526316,4.60542974 C3.03438596,4.66545909 3.09052632,4.81974015 3.02989474,4.94933623 L2.27761404,6.55834738 C2.21698246,6.68794346 2.06259649,6.74348464 1.93347368,6.68345529 Z M6.13389474,5.15971949 L4.44968421,4.3726056 C4.32,4.31201522 4.26442105,4.15829519 4.32505263,4.0286991 C4.38512281,3.89910302 4.53894737,3.84356184 4.66863158,3.90359119 L6.35340351,4.69070508 C6.48308772,4.75129546 6.53866667,4.90501549 6.47859649,5.03461158 C6.41796491,5.16420767 6.26357895,5.21974884 6.13389474,5.15971949 Z M2.01880702,3.23709704 L0.408701754,2.48532753 C0.279017544,2.42473716 0.222877193,2.2704561 0.283508772,2.14086002 C0.344140351,2.01182495 0.498526316,1.95572275 0.627649123,2.01631313 L2.23775439,2.76864365 C2.3674386,2.82867301 2.42301754,2.98295406 2.36294737,3.11198913 C2.30231579,3.24158521 2.14849123,3.29768742 2.01880702,3.23709704 Z M4.34919298,6.79061049 C4.28968421,6.76255939 4.2402807,6.71150639 4.21557895,6.64474477 L3.60926316,4.97514325 C3.56042105,4.84049796 3.62947368,4.69238815 3.76421053,4.64357923 C3.89838596,4.59477032 4.04715789,4.66433705 4.096,4.79842131 L4.70231579,6.46802283 C4.75059649,6.60266812 4.68154386,6.75077793 4.54736842,6.79958684 C4.48,6.82371079 4.40926316,6.81866159 4.34919298,6.79061049 Z M2.77052632,2.44268986 C2.71045614,2.41463876 2.66105263,2.36358576 2.63691228,2.29682414 L2.05978947,0.708009785 C2.01094737,0.573364501 2.08,0.425254689 2.21473684,0.376445773 C2.34891228,0.327636858 2.49768421,0.397203588 2.54596491,0.53128785 L3.12308772,2.1201022 C3.17192982,2.25474749 3.10287719,2.4028573 2.96870175,2.45166621 C2.90133333,2.47635118 2.83059649,2.47074096 2.77052632,2.44268986 Z M0.300912281,4.8999663 C0.240842105,4.87191519 0.191438596,4.82086219 0.167298246,4.75353955 C0.11845614,4.61945529 0.187508772,4.47078445 0.321684211,4.42197554 L1.99242105,3.81607176 C2.12715789,3.76726284 2.27592982,3.83682957 2.32477193,3.97147486 C2.37305263,4.10555912 2.304,4.25422995 2.16926316,4.30247785 L0.499087719,4.90894265 C0.431719298,4.93250557 0.360982456,4.9280174 0.300912281,4.8999663 Z M4.57094737,3.35098451 C4.51087719,3.32237238 4.46147368,3.2718804 4.43733333,3.20455776 C4.38849123,3.0704735 4.45754386,2.92180266 4.5922807,2.87355477 L6.26301754,2.26765099 C6.39719298,2.21884208 6.54596491,2.28784778 6.59480702,2.42193205 C6.64308772,2.55657733 6.57347368,2.70468714 6.43985965,2.75349606 L4.76912281,3.35996086 C4.70175439,3.38408481 4.63101754,3.37847459 4.57094737,3.35098451 Z" id="path-17"></path>
    </defs>
    <g id="Desktop" stroke="none" stroke-width="1" fill="none" fill-rule="evenodd">
        <g id="Group-27" transform="translate(0.000000, -1.000000)">
            <rect id="Rectangle" x="0" y="0" width="160" height="160"></rect>
            <g id="Group-23" transform="translate(0.000000, 1.230769)">
                <g id="Group-10">
                    <g id="Group-6">
                        <path d="M143.562269,78.0914856 C145.515445,67.2780456 143.630935,56.6934188 135.645075,48.4311736 C128.503951,41.0444998 117.993631,38.3434509 108.04292,38.7297272 C103.389088,38.9103131 98.6319958,39.7439906 94.6245757,42.2622763 C91.0294414,44.5218278 88.2706967,47.9806433 85.1411358,50.9175672 C78.9397407,56.7341719 71.106658,60.5554283 62.9075503,61.7597619 C56.3779441,62.7189384 49.7235475,62.052279 43.1647608,62.7423784 C36.6059743,63.432041 29.7572877,65.7917916 25.7447777,71.3399215 C22.8617911,75.3269023 21.7908715,80.537298 21.9215818,85.5682103 C22.2367501,97.7058267 29.1730283,108.901274 38.3426423,116.167172 C47.5122565,123.432633 58.7077207,127.230777 69.90568,129.669946 C80.7128977,132.024058 92.1594121,133.183677 102.593479,129.418814 C119.4298,123.346763 139.552701,100.239535 143.562269,78.0914856" id="Fill-513" stroke="#FE7042" stroke-width="0.5" opacity="0.331449963" fill-rule="nonzero" transform="translate(83.092594, 85.272659) scale(-1, -1) rotate(-145.000000) translate(-83.092594, -85.272659) "></path>
                        <path d="M131.849963,74.3125403 C133.612261,64.5441075 131.90585,54.9812803 124.68527,47.5147612 C118.228477,40.8394879 108.727714,38.3962944 99.7336579,38.7423905 C95.5272416,38.9041914 91.2276806,39.6559735 87.6062132,41.929868 C84.3573248,43.9701378 81.8647717,47.0940788 79.0368975,49.7464295 C73.4333101,54.9994335 66.3543101,58.4493442 58.9437149,59.5349887 C53.0420644,60.3996369 47.0271499,59.7954487 41.0990463,60.4170009 C35.1709427,61.0381585 28.9812887,63.1680107 25.3560955,68.1791026 C22.7513961,71.780159 21.7849263,76.4869864 21.9045241,81.0320128 C22.1929003,91.9973775 28.4656394,102.113485 36.7558935,108.680233 C45.0461476,115.246587 55.1665096,118.681107 65.2887344,120.887913 C75.0577543,123.017765 85.4042717,124.068682 94.8342448,120.670468 C110.050369,115.189759 128.232222,94.3202069 131.849963,74.3125403" id="Fill-513" fill="url(#linearGradient-1)" fill-rule="nonzero"></path>
                        <g id="Group-15" transform="translate(87.017544, 10.098396)">
                            <path d="M18.0306767,7.37257733 L14.1762406,7.37257733 L18.0306767,38.0916495 C18.0351899,38.7580886 17.6674025,39.3749745 17.0687947,39.7050043 C16.4701869,40.035034 15.7340111,40.0267948 15.1434586,39.683456 C13.6889181,38.87785 12.7912411,37.3810125 12.7903759,35.7597927 L12.7903759,4.56597119 L5.09593985,0.293227507 L1.29924812,0.293227507 L5.15368421,35.7458295 C5.15989325,40.0278867 7.52575279,43.9819639 11.361203,46.120498 C11.9253382,46.4327163 12.5201369,46.689971 13.1368421,46.8884748 L12.2995489,47.3632241 L13.2667669,47.3632241 C15.1783703,47.366121 17.0800892,47.0979695 18.9112782,46.5673208 C19.605183,46.3733702 20.285147,46.135482 20.9467669,45.8551969 C24.0636141,44.3515932 25.9461397,41.1884666 25.7251128,37.8263485 L25.7251128,11.8268428 L18.0306767,7.37257733 Z" id="_Контур_5" fill="#99A7D8"></path>
                            <g id="Group-14">
                                <g id="Group-13">
                                    <g id="Group-12" transform="translate(27.428571, 15.359536)">
                                        <g id="_Группа_" fill="#99A7D8">
                                            <polygon id="_Контур_6" points="12.3861654 44.6124708 8.54616541 46.6371369 4.69172932 42.3364668 0.851729323 0.0837792878 4.69172932 0.0837792878 12.2851128 4.31463332"></polygon>
                                        </g>
                                        <g id="_Группа_2" fill="#C2CAE8">
                                            <polygon id="_Контур_7" points="8.54616541 46.6371369 0.851729323 42.3364668 0.851729323 0.0837792878 8.44511278 4.31463332"></polygon>
                                        </g>
                                    </g>
                                    <g id="_Группа_3" fill="#C2CAE8">
                                        <path d="M12.2851128,47.3632241 C10.6073375,47.3606034 8.95965936,46.9320843 7.50676692,46.120498 C3.6713167,43.9819639 1.30545716,40.0278867 1.29924812,35.7458295 L1.29924812,0.293227507 L8.99368421,4.56597119 L8.99368421,35.7458295 C8.99454935,37.3670493 9.89222634,38.8638867 11.3467669,39.6694928 C11.9373194,40.0128316 12.6734951,40.0210708 13.272103,39.6910411 C13.8707108,39.3610113 14.2384982,38.7441254 14.233985,38.0776863 L14.233985,7.35861412 L21.9284211,11.8268428 L21.9284211,38.0637231 C21.9204973,43.1910707 17.6293925,47.3478554 12.3284211,47.3632241 L12.2851128,47.3632241 Z" id="_Контур_8"></path>
                                    </g>
                                </g>
                                <polygon id="Path" fill="#D6DCEF" points="35.8736842 19.6741694 39.7136842 19.6741694 32.1203008 15.4433154 28.2803008 15.4433154"></polygon>
                                <polygon id="Path" fill="#D6DCEF" points="21.8851128 11.8128796 25.7251128 11.8128796 18.0306767 7.37257733 14.1906767 7.37257733"></polygon>
                                <polygon id="Path" fill="#D6DCEF" points="8.99368421 4.55200797 12.8336842 4.56597119 5.13924812 0.293227507 1.29924812 0.293227507"></polygon>
                            </g>
                        </g>
                        <g id="Group-16" transform="translate(0.000000, 66.761620)">
                            <polygon id="Path" fill="#FFFFFF" points="27.8472817 38.9209024 2.44144924 23.0394912 26.9566713 8.88995488 42.296263 0.0302951889 54.2726286 7.53508671 56.6866515 9.04311389 67.7255325 15.9470508"></polygon>
                            <polygon id="Path" fill="#A9CBF3" points="0.75397697 31.4278924 0.75397697 28.7888448 0.777414085 28.7888448 28.4918023 44.8587594 28.5621137 44.8587594 28.5855508 47.5802772 28.4918023 47.6156216 0.777414085 31.5810514 0.75397697 31.5221441 0.777414085 31.5221441"></polygon>
                            <polygon id="Path" fill="#A9CBF3" points="0.718821298 35.0212384 0.718821298 34.3025692 28.4918023 50.4078282 28.6207065 50.3724838 28.6441436 53.0586572 28.4918023 53.129346 0.718821298 37.0594314"></polygon>
                            <polygon id="Path" fill="#D8EAFF" points="65.4521324 20.0116553 27.7769703 41.713109 27.6363477 41.7955792 27.8472817 38.9209024 67.7255325 15.9470508 67.6903769 16.3947464 67.5145985 18.8217276"></polygon>
                            <polygon id="Path" fill="#D8EAFF" points="28.4918023 42.1372416 66.0029046 20.5300397 66.0029046 23.2515575 28.5621137 44.8587594"></polygon>
                            <polygon id="Path" fill="#D8EAFF" points="66.0029046 28.7172518 28.6207065 50.3244537 28.5855508 47.5322472 66.0029046 25.9603896 66.0029046 27.704046"></polygon>
                            <polygon id="Path" fill="#D8EAFF" points="66.0029046 31.4112617 66.0029046 32.0592421 28.6089879 53.7017884 28.6089879 52.9831192 65.9677489 31.4466061"></polygon>
                            <path d="M66.0029046,20.5300397 L28.5035209,42.1372416 L27.7769703,41.713109 L65.4521324,20.0116553 L65.9794675,20.3061919 C65.9912337,20.3364956 65.9912337,20.3701399 65.9794675,20.4004436 L65.9794675,20.4593509 L65.9794675,20.3297548 L66.0029046,20.5300397 Z M0.847725429,25.9495124 L2.32426366,25.1012471 L2.32426366,26.1969231 L23.1129845,39.038717 L0.847725429,26.067327 L0.847725429,26.067327 L0.847725429,26.067327 L0.847725429,26.067327 L0.847725429,25.9495124 Z" id="Shape" fill="#EEF6FF"></path>
                            <path d="M0.718821298,34.2961341 L0.718821298,31.515709 L0.718821298,31.5746163 L28.4332096,47.6091866 L28.526958,47.6091866 L28.526958,44.8876688 L28.4683652,44.8876688 L0.777414085,28.7824097 L0.777414085,28.7824097 L0.777414085,26.0844549 L0.777414085,26.0255475 L0.777414085,26.0255475 L23.1012659,38.9851561 L27.5777549,41.7420183 L27.7183776,41.6595481 L28.4449281,42.0836807 L28.5035209,44.8051985 L66.0029046,23.1979966 L66.0029046,25.9548588 L28.5855508,47.5738422 L28.5855508,50.3542673 L65.9677489,28.7470653 L65.9677489,31.4685831 L65.9677489,31.4685831 L28.6207065,53.0168778 L28.6207065,50.3189229 L28.4918023,50.3189229 L0.718821298,34.2961341 Z M28.6441436,53.8242116 L0.718821298,37.8485486 L0.718821298,37.1063165 L28.4918023,53.1762312 L28.6441436,53.1173239 L28.6441436,53.8242116 Z" id="Shape" fill="#C5DFFE"></path>
                            <polygon id="Path" fill="#D7E5EA" points="0.75397697 31.4278924 0.777414085 31.5221441 0.75397697 31.5221441"></polygon>
                            <path d="M31.8784654,36.5999543 L31.491753,34.7502647 C31.1792582,33.4778668 30.83942,31.9266409 30.4722386,30.0965871 C29.5581911,25.3840022 29.1675725,22.3875836 29.3003828,21.1073313 C29.3435592,20.4488958 29.4736023,19.799152 29.6870952,19.1751715 C29.9028625,18.8002749 30.3297344,18.6021996 30.7534839,18.6803501 C31.491753,18.7510389 33.929213,19.3165491 38.1244565,19.976311 C38.933037,20.105907 40.2806711,20.8127948 41.2181557,19.976311 C41.686898,19.5521783 41.581431,18.091277 41.5228382,17.455078 C41.4642454,16.818879 41.2064371,15.5818255 41.077533,13.5200696 C40.9694243,12.0965843 40.9694243,10.666884 41.077533,9.24339875 C41.3275289,7.20127861 45.6243333,6.98135798 53.9679461,8.58363686 C55.1398019,8.80748464 56.0538494,9.06667681 57.096801,9.2905246 C57.096801,9.2905246 57.096801,9.2905246 57.096801,9.2905246 L67.7372511,15.9588323 L67.7372511,15.9588323 L31.8784654,36.5999543 Z" id="Path" fill="#27E0C0"></path>
                            <path d="M10.5389724,22.7920805 L10.5389724,22.5800141 C10.6061108,21.999972 10.9231407,21.4788025 11.4061457,21.1544572 C11.9957433,20.7288873 12.7079285,20.5095322 13.4334561,20.5300397 C14.1689948,20.5160972 14.8903517,20.7344901 15.4959222,21.1544572 C15.9847825,21.4842466 16.2925009,22.0245551 16.3279398,22.6153585 L16.3279398,22.7213917 C16.2944955,23.3033641 15.9849474,23.8337356 15.4959222,24.1469486 C14.8903517,24.5669157 14.1689948,24.7853086 13.4334561,24.7713661 C12.7079285,24.7918736 11.9957433,24.5725185 11.4061457,24.1469486 C10.9311932,23.8473161 10.6134128,23.3508172 10.5389724,22.7920805 Z" id="Path" fill="#FFD22E"></path>
                            <polygon id="Path" fill="#C5DFFE" points="2.44144924 23.0394912 2.34770078 26.1969231 27.6363477 41.7955792 27.8472817 38.9209024"></polygon>
                        </g>
                        <path d="M129.09607,1.49462891 C129.20593,1.38410757 129.319713,1.27807441 129.441343,1.17765147 C132.250608,-1.17190874 136.782314,0.596432657 139.764216,1.33305456 C140.972671,1.63095726 142.212514,2.04947968 143.165938,3.1457167 C144.119362,4.24251474 144.692201,6.19879852 144.193909,7.7960282 C143.903566,8.72395861 143.315033,9.38428153 142.710806,9.91893551 C140.55285,11.8286545 137.986846,12.5927664 135.452229,12.8345669 C133.447293,13.0258754 131.324649,12.8693503 129.606132,11.3775928 C127.03228,9.14079797 126.61246,4.02259411 129.09607,1.49462891" id="Fill-537" fill="url(#linearGradient-2)" fill-rule="nonzero"></path>
                        <path d="M57.8234669,29.7415972 C56.7681238,29.6920104 55.6122718,29.8943782 54.5192379,30.2361251 C51.4788447,31.180955 44.4809148,34.8396577 44.9332047,39.2408224 C45.2975494,42.7735478 55.0720366,39.8800902 56.793251,39.0679387 C58.7657375,38.1378509 60.7256604,36.5591139 61.090005,34.2915224 C61.6302402,31.0254936 59.9718439,29.8447914 57.8234669,29.7415972" id="Fill-717" fill="url(#linearGradient-3)" fill-rule="nonzero"></path>
                    </g>
                    <g id="Group-19" transform="translate(7.298246, 2.805110)">
                        <g id="Group-545" transform="translate(46.035088, 46.003805)">
                            <mask id="mask-5" fill="white">
                                <use xlink:href="#path-4"></use>
                            </mask>
                            <g id="Clip-544"></g>
                            <path d="M6.23958608,5.08630457 C6.50635805,4.60972165 6.64538006,4.05539825 6.60780655,3.47140578 C6.56271833,2.68123205 6.20952727,1.95678095 5.61962306,1.43099995 C5.0259615,0.905218951 4.26321912,0.641577336 3.47417527,0.688522068 C1.84348465,0.785040437 0.592286556,2.19112905 0.689977699,3.82255238 C0.735065918,4.61235055 1.08825697,5.33717722 1.68191853,5.86258266 C2.27182274,6.38836366 3.03456513,6.65200527 3.82360897,6.60506054 C4.87191008,6.54309349 5.76240243,5.94069869 6.23958608,5.08630457 Z M0.460779248,1.87566045 C1.04692611,0.823722896 2.14407279,0.0831228032 3.4328444,0.00650900046 C4.40599848,-0.0509513516 5.34157904,0.273530636 6.07050526,0.920241265 C6.79943148,1.56732745 7.23528427,2.4589018 7.29164455,3.43122109 C7.4118798,5.43782672 5.87512297,7.16802177 3.86493984,7.28669805 C2.89178577,7.34453396 1.9562052,7.02005197 1.22727898,6.37334134 C0.498352764,5.72663071 0.0662573248,4.83505636 0.00613969839,3.86273707 C-0.0351911698,3.14467045 0.133889654,2.46190627 0.460779248,1.87566045 L0.460779248,1.87566045 Z" id="Fill-543" fill="url(#linearGradient-6)" opacity="0.588146391" mask="url(#mask-5)"></path>
                        </g>
                        <g id="Group-548" transform="translate(107.228070, 113.326447)">
                            <mask id="mask-8" fill="white">
                                <use xlink:href="#path-7"></use>
                            </mask>
                            <g id="Clip-547"></g>
                            <path d="M4.93473684,3.35939984 L1.15649123,1.51307638 L1.44280702,5.70671596 L4.93473684,3.35939984 Z M0.140350877,0.418522425 C0.179649123,0.349516716 0.230175439,0.289487361 0.303157895,0.244044577 C0.449122807,0.14193857 0.645614035,0.128474042 0.808421053,0.20870019 L6.1754386,2.83147812 C6.33824561,2.91114325 6.45052632,3.07271759 6.46175439,3.25448872 C6.47298246,3.43625985 6.38877193,3.61129872 6.23719298,3.71284371 L1.28,7.04699755 C1.12842105,7.14798152 0.93754386,7.16200707 0.774736842,7.08178092 C0.606315789,7.00099375 0.499649123,6.83998043 0.488421053,6.6582093 L0.0785964912,0.701838543 C0.0673684211,0.601415602 0.0898245614,0.503236749 0.140350877,0.418522425 L0.140350877,0.418522425 Z" id="Fill-546" fill="url(#linearGradient-9)" opacity="0.588146391" mask="url(#mask-8)"></path>
                        </g>
                        <g id="Group-548-Copy" transform="translate(4.178225, 67.487361) rotate(-54.000000) translate(-4.178225, -67.487361) translate(1.371208, 64.401740)">
                            <mask id="mask-11" fill="white">
                                <use xlink:href="#path-10"></use>
                            </mask>
                            <g id="Clip-547"></g>
                            <path d="M4.27688576,2.78511829 L1.28798344,1.30044297 L1.51448273,4.67265445 L4.27688576,2.78511829 Z M0.484133045,0.420284498 C0.515221182,0.364795266 0.555191644,0.316524145 0.612926755,0.279982455 C0.728396978,0.197876437 0.883837663,0.187049269 1.01263137,0.251561141 L5.25838266,2.3606031 C5.38717637,2.42466384 5.47599962,2.55458985 5.48488194,2.70075661 C5.49376426,2.84692337 5.42714683,2.98767654 5.30723544,3.06933143 L1.38568902,5.75040873 C1.26577763,5.83161249 1.11477811,5.84289079 0.985984399,5.77837892 C0.852749526,5.71341591 0.76836744,5.58394104 0.759485115,5.43777428 L0.435280258,0.648106143 C0.426397933,0.567353521 0.444162583,0.488405426 0.484133045,0.420284498 L0.484133045,0.420284498 Z" id="Fill-546" fill="url(#linearGradient-12)" opacity="0.588146391" mask="url(#mask-11)"></path>
                        </g>
                        <g id="Group-575" transform="translate(98.807018, 0.000000)">
                            <mask id="mask-14" fill="white">
                                <use xlink:href="#path-13"></use>
                            </mask>
                            <g id="Clip-574"></g>
                            <path d="M7.80350877,1.82724871 C7.06470175,1.48222017 6.22315789,1.33635444 5.35691228,1.45080294 C4.18357895,1.60508399 3.14049123,2.20649959 2.42021053,3.1445284 C1.69992982,4.08255722 1.38835088,5.24555586 1.54273684,6.41753085 C1.86105263,8.83777983 4.09150877,10.5472139 6.51340351,10.2285534 C7.68617544,10.0748334 8.72870175,9.47285675 9.44898246,8.53482794 C10.1698246,7.59679913 10.4808421,6.43436151 10.3264561,5.2618255 C10.1215439,3.70779451 9.12898246,2.44661702 7.80350877,1.82724871 Z M3.63508772,10.7766719 C2.00364912,10.014804 0.782035088,8.46301712 0.530526316,6.55049307 C0.340210526,5.10810546 0.723649123,3.67806034 1.61010526,2.52347703 C2.4965614,1.36889372 3.77992982,0.628905681 5.22329825,0.438719217 C8.20266667,0.0471258494 10.946807,2.15039739 11.3386667,5.12886328 C11.5289825,6.57068986 11.1455439,8.001296 10.2590877,9.15587932 C9.37319298,10.3099016 8.09038596,11.0504507 6.64645614,11.2406371 C5.58035088,11.3808926 4.544,11.2013656 3.63508772,10.7766719 L3.63508772,10.7766719 Z" id="Fill-573" fill="url(#linearGradient-15)" opacity="0.588146391" mask="url(#mask-14)"></path>
                        </g>
                        <g id="Group-578" transform="translate(32.000000, 125.668932)">
                            <mask id="mask-18" fill="white">
                                <use xlink:href="#path-17"></use>
                            </mask>
                            <use id="Combined-Shape" fill="url(#linearGradient-16)" xlink:href="#path-17"></use>
                        </g>
                    </g>
                </g>
            </g>
        </g>
    </g>
</svg>