<?xml version="1.0" encoding="UTF-8"?>
<svg width="141px" height="148px" viewBox="0 0 141 148" version="1.1" xmlns="http://www.w3.org/2000/svg" xmlns:xlink="http://www.w3.org/1999/xlink">
    <!-- Generator: Sketch 54.1 (76490) - https://sketchapp.com -->
    <title>Group 28</title>
    <desc>Created with Sketch.</desc>
    <defs>
        <linearGradient x1="39.9023438%" y1="35.9192618%" x2="25.3574219%" y2="87.7656793%" id="linearGradient-1">
            <stop stop-color="#FFCDC9" offset="0%"></stop>
            <stop stop-color="#F87F97" offset="100%"></stop>
        </linearGradient>
        <linearGradient x1="0%" y1="50%" x2="100%" y2="50%" id="linearGradient-2">
            <stop stop-color="#FFAFA7" offset="0%"></stop>
            <stop stop-color="#FFBDCA" offset="100%"></stop>
        </linearGradient>
        <linearGradient x1="0%" y1="50%" x2="100%" y2="50%" id="linearGradient-3">
            <stop stop-color="#FE958B" offset="0%"></stop>
            <stop stop-color="#F87F97" offset="100%"></stop>
        </linearGradient>
        <linearGradient x1="6041%" y1="50%" x2="47%" y2="50%" id="linearGradient-4">
            <stop stop-color="#B80065" offset="49%"></stop>
            <stop stop-color="#658000" offset="53%"></stop>
        </linearGradient>
        <linearGradient x1="114.565757%" y1="50.0043805%" x2="-0.446650124%" y2="50.0043805%" id="linearGradient-5">
            <stop stop-color="#9797EE" offset="34%"></stop>
            <stop stop-color="#C7C7FF" offset="57%"></stop>
        </linearGradient>
        <linearGradient x1="132.367173%" y1="50.0031648%" x2="-0.867148948%" y2="50.0031648%" id="linearGradient-6">
            <stop stop-color="#FFA600" offset="34%"></stop>
            <stop stop-color="#FFCC00" offset="57%"></stop>
        </linearGradient>
        <linearGradient x1="100.261145%" y1="49.9725065%" x2="-0.606230181%" y2="49.9725065%" id="linearGradient-7">
            <stop stop-color="#4397FB" offset="35%"></stop>
            <stop stop-color="#8EC2FF" offset="58%"></stop>
        </linearGradient>
        <path d="M6.10860241,4.97769238 C6.3697742,4.51128634 6.50587781,3.96879988 6.46909305,3.3972779 C6.42495134,2.62397742 6.0791746,1.91499614 5.50165388,1.40044259 C4.92045468,0.88588904 4.17372406,0.627877189 3.40124411,0.67381947 C1.80478555,0.7682768 0.579853059,2.14434001 0.675493434,3.74092616 C0.719635145,4.5138591 1.06541188,5.22320793 1.64661108,5.73739394 C2.22413181,6.25194749 2.97086242,6.50995934 3.74334237,6.46401706 C4.76963716,6.40337325 5.64143596,5.81384189 6.10860241,4.97769238 Z M0.451106401,1.83560788 C1.02494865,0.80613324 2.09906363,0.0813478112 3.36078088,0.00637000823 C4.31350615,-0.049863344 5.22944666,0.267689704 5.94307099,0.90059057 C6.65669532,1.53385897 7.08339853,2.40639478 7.13857567,3.35795131 C7.2562869,5.32170818 5.75179024,7.01495689 3.78380561,7.13109898 C2.83108034,7.18769987 1.91513983,6.87014682 1.20151549,6.23724596 C0.487891161,5.60434509 0.0648664267,4.73180929 0.00601081159,3.78025276 C-0.0344524238,3.07751962 0.131078994,2.40933509 0.451106401,1.83560788 L0.451106401,1.83560788 Z" id="path-8"></path>
        <linearGradient x1="0%" y1="50%" x2="100%" y2="50%" id="linearGradient-10">
            <stop stop-color="#FE958B" offset="0%"></stop>
            <stop stop-color="#F87F97" offset="100%"></stop>
        </linearGradient>
        <path d="M4.83114504,3.28766371 L1.13221374,1.48076637 L1.41251908,5.58485559 L4.83114504,3.28766371 Z M0.13740458,0.409585359 C0.175877863,0.342053188 0.225343511,0.283305691 0.296793893,0.238833286 C0.439694656,0.138907635 0.632061069,0.125730626 0.791450382,0.204243637 L6.04580153,2.77101516 C6.20519084,2.84897912 6.3151145,3.00710323 6.32610687,3.18499285 C6.33709924,3.36288247 6.25465649,3.53418359 6.10625954,3.63356019 L1.25312977,6.89651701 C1.10473282,6.99534458 0.917862595,7.00907063 0.758473282,6.93055762 C0.593587786,6.85149557 0.489160305,6.6939205 0.478167939,6.51603088 L0.0769465649,0.686851587 C0.0659541985,0.588573063 0.0879389313,0.492490706 0.13740458,0.409585359 L0.13740458,0.409585359 Z" id="path-11"></path>
        <linearGradient x1="0%" y1="50%" x2="100%" y2="50%" id="linearGradient-13">
            <stop stop-color="#FE958B" offset="0%"></stop>
            <stop stop-color="#F87F97" offset="100%"></stop>
        </linearGradient>
        <path d="M4.18710381,2.72564529 L1.26094562,1.27267351 L1.48269015,4.57287529 L4.18710381,2.72564529 Z M0.473969946,0.411309805 C0.50440547,0.357005482 0.543536857,0.309765135 0.600059972,0.274003752 C0.713106202,0.193651013 0.865283819,0.183055047 0.991373845,0.246189342 L5.14799676,2.31019514 C5.27408679,2.37288793 5.36104542,2.50003952 5.36974129,2.64308505 C5.37843715,2.78613059 5.31321817,2.92387814 5.19582401,3.00378938 L1.35660013,5.62761536 C1.23920596,5.7070851 1.09137628,5.71812256 0.965286253,5.65498827 C0.834848296,5.59141248 0.752237589,5.46470239 0.743541726,5.32165685 L0.426142695,0.634266581 C0.417446832,0.555238338 0.434838559,0.477976089 0.473969946,0.411309805 L0.473969946,0.411309805 Z" id="path-14"></path>
        <linearGradient x1="0%" y1="50%" x2="100%" y2="50%" id="linearGradient-16">
            <stop stop-color="#FE958B" offset="0%"></stop>
            <stop stop-color="#F87F97" offset="100%"></stop>
        </linearGradient>
        <path d="M7.63969466,1.78822991 C6.91639695,1.45056906 6.09251908,1.30781813 5.24445802,1.41982271 C4.09575573,1.57080927 3.07456489,2.15938233 2.36940458,3.07738061 C1.66424427,3.9953789 1.35920611,5.13354304 1.51035115,6.28049185 C1.82198473,8.64905919 4.00561832,10.3219903 6.37667176,10.0101344 C7.52482443,9.85969688 8.54546565,9.27057478 9.25062595,8.35257649 C9.95633588,7.43457821 10.2608244,6.29696311 10.1096794,5.14946526 C9.9090687,3.62861882 8.93734351,2.39437232 7.63969466,1.78822991 Z M3.55877863,10.5465485 C1.96158779,9.80094939 0.765618321,8.28229911 0.519389313,6.41061481 C0.333068702,4.99902774 0.708458015,3.59951959 1.57630534,2.46959108 C2.44415267,1.33966257 3.70058015,0.615476122 5.11364885,0.429350872 C8.03047328,0.046119531 10.7170076,2.10447812 11.1006412,5.01934229 C11.2869618,6.43038033 10.9115725,7.83043752 10.0437252,8.96036603 C9.17642748,10.0897455 7.92054962,10.814481 6.5069313,11.0006062 C5.46320611,11.1378667 4.44861069,10.9621733 3.55877863,10.5465485 L3.55877863,10.5465485 Z" id="path-17"></path>
        <linearGradient x1="0%" y1="50%" x2="100%" y2="50%" id="linearGradient-19">
            <stop stop-color="#FE958B" offset="0%"></stop>
            <stop stop-color="#F87F97" offset="100%"></stop>
        </linearGradient>
        <linearGradient x1="0%" y1="50%" x2="100%" y2="50%" id="linearGradient-20">
            <stop stop-color="#FF8E5A" offset="0%"></stop>
            <stop stop-color="#FFB251" offset="100%"></stop>
        </linearGradient>
        <path d="M3.81160305,2.43994281 C3.68464122,2.38009723 3.62967939,2.23020875 3.68903817,2.102831 L4.39035115,0.604495282 C4.44970992,0.477666571 4.60030534,0.42331141 4.72726718,0.482058908 C4.85422901,0.541355448 4.90919084,0.692342007 4.84983206,0.819170718 L4.14851908,2.31750643 C4.08916031,2.44433514 3.93801527,2.49869031 3.81160305,2.43994281 Z M1.8928855,6.54073778 C1.76592366,6.48144124 1.71096183,6.33045468 1.77032061,6.20417501 L2.50735878,4.62897341 C2.56671756,4.50269374 2.71731298,4.44778953 2.84427481,4.50708607 C2.97068702,4.56583357 3.02564885,4.71682013 2.96629008,4.84364884 L2.22980153,6.4183014 C2.17044275,6.54513011 2.01929771,6.59948527 1.8928855,6.54073778 Z M6.00512977,5.04953961 L4.35627481,4.27923363 C4.22931298,4.21993709 4.17490076,4.06949957 4.23425954,3.94267086 C4.2930687,3.81584215 4.44366412,3.76148699 4.57062595,3.82023449 L6.22003053,4.59054046 C6.34699237,4.649837 6.40140458,4.80027452 6.34259542,4.92710323 C6.28323664,5.05393194 6.1320916,5.1082871 6.00512977,5.04953961 Z M1.97642748,3.16797255 L0.400122137,2.43225622 C0.273160305,2.37295968 0.218198473,2.22197312 0.277557252,2.09514441 C0.336916031,1.96886474 0.488061069,1.91396054 0.614473282,1.97325708 L2.19077863,2.70952245 C2.31774046,2.76826995 2.37215267,2.91925651 2.31334351,3.04553617 C2.25398473,3.17236488 2.10338931,3.22726909 1.97642748,3.16797255 Z M4.25789313,6.6456048 C4.19963359,6.6181527 4.15126718,6.56818988 4.12708397,6.50285387 L3.53349618,4.86890478 C3.48567939,4.73713469 3.55328244,4.59218759 3.68519084,4.54442093 C3.81654962,4.49665428 3.96219847,4.56473549 4.01001527,4.69595653 L4.60360305,6.32990563 C4.65087023,6.46167572 4.58326718,6.60662282 4.4519084,6.65438948 C4.3859542,6.67799828 4.31670229,6.67305691 4.25789313,6.6456048 Z M2.71236641,2.39052902 C2.65355725,2.36307692 2.60519084,2.3131141 2.58155725,2.2477781 L2.01654962,0.692891049 C1.96873282,0.561120961 2.03633588,0.416173863 2.16824427,0.368407206 C2.29960305,0.320640549 2.44525191,0.388721762 2.49251908,0.519942808 L3.05752672,2.07482985 C3.10534351,2.20659994 3.03774046,2.35154704 2.90638168,2.3993137 C2.84042748,2.42347155 2.77117557,2.41798113 2.71236641,2.39052902 Z M0.29459542,4.79533314 C0.23578626,4.76788104 0.187419847,4.71791822 0.16378626,4.65203317 C0.115969466,4.52081212 0.183572519,4.37531599 0.314931298,4.32754933 L1.95059542,3.73458393 C2.08250382,3.68681727 2.22815267,3.75489848 2.27596947,3.88666857 C2.32323664,4.01788962 2.25563359,4.16338576 2.12372519,4.21060337 L0.488610687,4.80411782 C0.422656489,4.82717758 0.35340458,4.82278524 0.29459542,4.79533314 Z M4.47499237,3.27942808 C4.41618321,3.25142694 4.36781679,3.20201315 4.34418321,3.13612811 C4.29636641,3.00490706 4.36396947,2.85941092 4.49587786,2.81219331 L6.13154198,2.21922791 C6.26290076,2.17146125 6.40854962,2.23899342 6.45636641,2.37021447 C6.50363359,2.50198456 6.43548092,2.64693166 6.30467176,2.69469831 L4.66900763,3.28821275 C4.60305344,3.31182156 4.53380153,3.30633114 4.47499237,3.27942808 Z" id="path-21"></path>
    </defs>
    <g id="Desktop" stroke="none" stroke-width="1" fill="none" fill-rule="evenodd">
        <g id="Group-28" transform="translate(-8.000000, 0.000000)">
            <rect id="Rectangle" x="0" y="0" width="160" height="160"></rect>
            <g id="Group-24" transform="translate(8.615385, 0.000000)">
                <g id="Group-9" transform="translate(0.000000, 2.745210)">
                    <path d="M101.097939,36.6411231 C107.620196,41.2779314 102.873965,60.3632934 110.091105,63.7235707 C128.439773,72.266436 117.252543,66.0393497 113.634047,86.7121434 C110.61877,103.94055 115.153305,106.946811 94.2706683,106.288132 C87.0478925,106.059804 98.7939942,121.101881 93.4955642,117.323854 C90.3140808,115.056065 87.2867373,111.543426 82.8766946,110.958505 C78.2253549,110.342304 73.1198592,113.03422 68.8928449,114.663326 C62.6018236,117.090423 55.9778308,119.61728 49.1590261,119.809939 C33.5144127,120.252874 30.1356111,109.316179 32.6185737,95.868008 C33.8260016,89.3304217 35.9679534,83.0170642 37.5630154,76.5739508 C39.8255444,67.4365994 38.6091672,59.1887453 37.1857773,50.0053646 C35.918109,41.8274783 35.4421568,32.8315151 39.9933731,25.9287129 C45.1576103,18.0960728 55.6863669,15.2192634 64.9519873,16.6871187 C66.6536215,16.9566586 68.3051967,17.333794 69.9143837,17.8027497 C81.7041742,21.2382463 91.1920491,29.5984546 101.097939,36.6411231 Z" id="Fill-204" stroke="#FA8991" stroke-width="0.5" opacity="0.297712054" fill-rule="nonzero" transform="translate(76.105696, 68.070505) rotate(137.000000) translate(-76.105696, -68.070505) "></path>
                    <path d="M47.60332,26.0197869 C58.0866513,29.0627054 66.5205446,36.4764984 75.3268017,42.7210151 C81.125036,46.8323296 87.5231496,49.2721213 93.9399533,52.250419 C110.253867,59.8221738 126.478284,71.7587 123.250653,90.1038078 C120.56108,105.392355 103.628238,120.799373 85.0571389,120.224608 C78.6338655,120.025361 73.238546,117.665986 68.5282893,114.316119 C65.6999788,112.305337 63.0093277,109.1899 59.0876482,108.672934 C54.9513923,108.128325 50.4097056,110.519292 46.6497671,111.966796 C41.0538887,114.123334 35.1618446,116.368545 29.0976363,116.542662 C15.184318,116.942952 12.184562,107.240149 14.3989757,95.3061357 C15.4758112,89.50463 17.3836359,83.9016535 18.8051593,78.1837957 C20.8215302,70.0749709 19.7436164,62.757032 18.4820368,54.6090757 C17.3584761,47.3532445 16.9393873,39.3711481 20.9901002,33.2440257 C25.5864194,26.291553 34.9512219,23.734008 43.1906667,25.0321667 C44.7038434,25.2705454 46.1724515,25.6044192 47.60332,26.0197869 L47.60332,26.0197869 Z" id="Fill-204" fill="url(#linearGradient-1)" fill-rule="nonzero"></path>
                    <path d="M46.5165312,3.64369361 C44.8259652,3.96574154 43.4116513,4.82838036 42.7197543,6.43811269 C42.1013598,7.87710525 42.3751952,9.53934943 43.060787,10.9484529 C43.3814067,11.6078387 43.8033915,12.245491 44.4216404,12.6808421 C44.976412,13.0718842 45.6523617,13.2753446 46.275789,13.5613553 C47.510626,14.1280996 48.5601631,15.0419258 49.2538595,16.1534015 C49.8055106,17.0388555 50.1304355,18.0327721 50.6453007,18.9375336 C51.1601658,19.8419437 51.9352038,20.6951862 52.9930385,20.9628003 C53.7530871,21.1547086 54.5756669,21.0177433 55.2964096,20.7180286 C57.0352013,19.9950636 58.2185799,18.3725868 58.690768,16.648536 C59.1633316,14.9244853 59.0054323,13.1024169 58.6500761,11.3557951 C58.3075177,9.66997145 57.7513049,7.95978973 56.5453757,6.66918572 C54.6004861,4.5875551 49.9791316,2.98347617 46.5165312,3.64369361" id="Fill-516" fill="url(#linearGradient-2)" fill-rule="nonzero" transform="translate(50.680052, 12.272345) rotate(-43.000000) translate(-50.680052, -12.272345) "></path>
                    <path d="M4.55754018,108.340944 C2.6981149,108.724317 1.14219342,109.749288 0.38033696,111.660731 C-0.300585154,113.369432 -0.00038480426,115.342615 0.752800117,117.015024 C1.10502969,117.797622 1.56875045,118.554357 2.24843377,119.070805 C2.85833187,119.534691 3.60160646,119.775811 4.28707081,120.114965 C5.64478573,120.787016 6.79851308,121.871223 7.56078247,123.190294 C8.16696419,124.241129 8.52373599,125.420867 9.08945055,126.494646 C9.6551651,127.568008 10.5070404,128.580463 11.6702651,128.897508 C12.5060361,129.124862 13.4107664,128.961751 14.2035927,128.605493 C16.116286,127.746136 17.4186682,125.819258 17.9389604,123.772237 C18.4596656,121.725216 18.2870607,119.562224 17.8972545,117.488921 C17.5214879,115.487788 16.9107639,113.457871 15.5852576,111.926464 C13.4475172,109.456439 8.36599661,107.555008 4.55754018,108.340944" id="Fill-516" fill="url(#linearGradient-3)" fill-rule="nonzero" transform="translate(9.132093, 118.581788) scale(-1, -1) translate(-9.132093, -118.581788) "></path>
                    <g id="Ресурс-1" transform="translate(14.839695, 38.981985)">
                        <path d="M47.6211056,43.5873938 L53.3196208,46.8834017 L58.9873333,43.6181977 L63.8110494,35.9049232 L75.066387,42.3860452 C75.5181612,42.6735474 75.7645835,42.9610497 75.8056539,43.2485519 L75.8056539,43.4148925 C75.8056539,43.6325728 75.5592316,43.885164 75.066387,44.1726663 L70.3535609,46.8217941 L70.3535609,46.8217941 L63.1457093,50.9803087 C62.2032759,51.5688271 61.0078641,51.5688271 60.0654308,50.9803087 L48.3295697,44.2034701 C48.0443238,44.0625191 47.8002954,43.8503134 47.6211056,43.5873938 Z" id="Path" fill="#C6DFFF"></path>
                        <polygon id="Path" fill="#FF65A7" points="47.5595 43.55659 34.6223303 36.089746 32.096502 34.6234846 29.4166597 33.083294 28.0921399 35.208757 26.4595923 37.8394025 23.5641305 42.4907781 22.8741481 43.6058761 22.8248637 43.6798053 21.9808674 45.035173 7.70069625 67.9840129 6.96142941 69.1853615 5.72931801 71.1568055 0.338830635 68.1072281 0.36963342 68.1072281 1.63254761 66.0741765 2.37181445 64.9036317 13.2760003 47.4686741 21.2107978 34.7959859 27.5684926 24.6122457 29.5583525 25.7519868 35.9160473 29.4176404 40.8444929 32.2515911 45.3725023 34.9007189 51.0402147 38.165923 51.1018203 38.1967268 51.4098482 38.3507458 51.8102844 37.7962772 51.7794816 37.7962772 55.5990269 31.6663186 55.6298297 31.6663186 62.9608925 19.9608701 64.7474541 17.0961156 68.8935089 19.4988129 73.0334032 21.9015103 77.9618488 24.7662648 82.5514638 27.3845888 88.5888097 30.8654195 88.9584431 30.3109509 90.5601879 27.7234307 91.4103448 26.3495807 93.4556497 23.0535728 95.3531012 19.9916739 98.0144619 15.6791403 93.8868887 13.3996582 107.994564 3.29600787 107.994564 21.1930226 105.468736 19.8068511 103.651372 18.8211291 90.7142018 39.5212907 69.2754635 27.1381583 66.5956212 25.5671639 65.3819914 27.5201256 63.4106132 30.6805967 60.4042614 35.5044736 53.3196208 46.8834017 47.6211056 43.5873938"></polygon>
                        <polygon id="Path" fill="url(#linearGradient-4)" points="1.69415318 105.102606 1.63254761 105.841898 1.63254761 105.102606"></polygon>
                        <path d="M12.9371697,47.2530475 L2.21780052,41.0922851 C1.86508256,40.9590291 1.57792626,40.6939529 1.41692811,40.3529936 L1.41692811,40.1065631 C1.47853368,39.8395967 1.73522356,39.5726304 2.18699774,39.305664 L2.4642228,39.1393234 L5.62458854,37.2910947 L5.62458854,37.2910947 L10.6762453,34.3955364 L10.6762453,34.4263402 L14.0645516,32.4548962 C14.7481789,32.0293383 15.5755523,31.9003349 16.3562788,32.097572 C16.643101,32.1823953 16.9183139,32.3024169 17.1756329,32.4548962 L20.8719671,34.5803592 L12.9371697,47.2530475 Z" id="Path" fill="#FFE064"></path>
                        <path d="M34.6223303,36.089746 L47.5595,43.55659 L47.5595,45.762143 L45.6189246,46.8217941 L45.6189246,46.8217941 L44.5408271,47.4378703 L44.5408271,47.4378703 L38.4418757,50.9803087 C37.4957821,51.5559128 36.3076908,51.5559128 35.3615972,50.9803087 L25.4431004,45.2507997 L29.2934485,39.0900373 L32.0348964,37.5806505 L32.0348964,37.5806505 L32.1088231,37.5313644 L34.6223303,36.089746 Z" id="Path" fill="#DDDDFF"></path>
                        <path d="M47.5595,45.762143 L47.5595,79.5847284 L38.3802701,84.8398587 C37.4469848,85.4594777 36.2332769,85.4594777 35.2999916,84.8398587 L23.502525,78.0630201 C22.8864693,77.7139103 22.640047,77.3648004 22.7632581,77.0156905 L22.7940609,75.2229087 L22.8248637,75.2537125 C22.7836863,75.1658884 22.7836863,75.0643023 22.8248637,74.9764782 L22.8248637,49.520208 L25.4431004,45.3124073 L35.3615972,51.0419163 C36.3076908,51.6175205 37.4957821,51.6175205 38.4418757,51.0419163 L44.5408271,47.499478 L44.5408271,47.499478 L45.6189246,46.8834017 L45.6189246,46.8834017 L47.5595,45.762143 Z" id="Path" fill="url(#linearGradient-5)"></path>
                        <path d="M1.98985991,64.688005 C1.51755054,64.3799669 1.32862679,64.0780895 1.42308867,63.7823729 L1.42308867,61.9957518 C1.40202676,61.9045406 1.40202676,61.8097288 1.42308867,61.7185175 L1.42308867,40.3529936 C1.58295501,40.6765478 1.85743724,40.9290799 2.19315829,41.0614813 L12.9371697,47.2530475 L1.98985991,64.688005 Z M22.8310242,68.2489257 L17.0401007,71.5757373 C16.1025122,72.1809259 14.8974106,72.1809259 13.9598222,71.5757373 L9.456455,69.0005387 L11.3970305,67.8792799 L22.8248637,49.520208 L22.8310242,68.2489257 Z" id="Shape" fill="url(#linearGradient-6)"></path>
                        <path d="M75.8056539,89.2078393 L75.8056539,91.6721442 C75.8056539,91.9801823 75.5592316,92.2882205 75.066387,92.5962586 L63.176512,99.3730972 C62.2422422,99.9894444 61.0305034,99.9894444 60.0962335,99.3730972 L48.2987669,92.5962586 C47.7032464,92.2471487 47.4670917,91.8980389 47.5903028,91.548929 L47.5903028,89.7623079 L47.5903028,89.7623079 C47.5491255,89.6744838 47.5491255,89.5728977 47.5903028,89.4850736 L47.5903028,79.5785677 L47.5903028,45.7559822 L47.5903028,43.55659 L47.6519084,43.55659 C47.8310982,43.8195096 48.0751266,44.0317153 48.3603725,44.1726663 L60.1270363,51.0419163 C61.0694696,51.6304347 62.2648815,51.6304347 63.2073148,51.0419163 L70.4151665,46.8834017 L70.4151665,46.8834017 L75.1279926,44.2034701 C75.6167301,43.920075 75.8631524,43.6674838 75.8672595,43.4456963 L75.8672595,89.2078393 L75.8056539,89.2078393 Z" id="Path" fill="url(#linearGradient-7)"></path>
                        <polygon id="Path" fill="#FFB0D2" points="107.994564 3.29600787 93.8868887 13.3996582 92.9320023 12.8759934 98.1869575 9.16721442 107.994564 2.24867827"></polygon>
                        <path d="M107.994564,21.1930226 L107.994564,2.24867827 L108.672225,1.75581728 L111.690898,0 L111.690898,19.0367558 L107.994564,21.1930226 Z M94.7924906,36.9645743 L94.5029444,37.4266315 L93.8252831,37.827081 L93.7944803,37.827081 L91.4719503,39.1208411 L90.7142018,39.5520945 L103.651372,18.8519329 L105.499539,19.8376549 L102.788894,24.1809923 L102.727288,24.2734038 L100.829836,27.3044989 L94.7924906,36.9645743 Z M68.0433521,29.0972807 L66.0719738,32.2700734 L63.8110494,35.9049232 L58.9873333,43.6181977 L53.3196208,46.8834017 L60.4042614,35.5044736 L63.4044526,30.6805967 L65.3758309,27.5262863 L66.6079423,25.5733246 L69.2754635,27.1073545 L68.0433521,29.0972807 Z M9.456455,69.0005387 L8.03952689,69.8322416 L5.72931801,71.1568055 L6.96142941,69.1853615 L7.70069625,67.9532091 L21.9808674,45.035173 L22.8248637,43.6798053 L22.8679876,43.6058761 L23.5641305,42.5092604 L26.4903951,37.8394025 L28.1229427,35.208757 L29.4474625,33.083294 L32.1273048,34.6234846 L30.802785,36.7489476 L29.3242513,39.1393234 L25.4739032,45.3000858 L22.8556665,49.5078865 L11.3970305,67.8607976 L9.456455,69.0005387 Z" id="Shape" fill="#E62B7B"></path>
                        <polygon id="Path" fill="#FFD4E6" points="1.24443251 65.8585499 1.98985991 64.6695227 12.9063669 47.2530475 20.8534854 34.5926808 27.2296619 24.4274228 27.9073232 24.0269733 27.938126 24.0577771 29.9279859 25.1975181 35.9160473 28.6167413 41.1833235 31.6663186 45.3725023 34.1306236 51.4098482 37.5806505 53.0423958 35.0239341 54.6441406 32.4672177 57.8353091 27.4030711 59.8066874 24.2734038 62.5604563 19.8807802 64.4086234 16.9420965 65.0862847 16.541647 65.1170875 16.5724508 69.6758997 19.1907748 73.0334032 21.131415 78.3314823 24.1501885 82.5514638 26.6144935 88.9584431 30.3109509 88.5888097 30.8654195 82.5514638 27.3845888 77.9618488 24.7662648 73.0334032 21.9015103 68.8935089 19.4988129 64.7474541 17.0961156 62.9608925 19.9608701 55.6298297 31.6663186 55.5990269 31.6663186 51.7794816 37.7962772 51.8102844 37.7962772 51.4098482 38.3507458 51.1018203 38.1967268 51.0402147 38.165923 45.3725023 34.9007189 40.8444929 32.2515911 35.9160473 29.4176404 29.5583525 25.7519868 27.5684926 24.6122457 21.2107978 34.7959859 13.2760003 47.4686741 2.37181445 64.9036317 1.63254761 66.0741765 0.36963342 68.1072281 0 67.8607976"></polygon>
                        <path d="M65.0862847,16.541647 L68.1665632,14.7550259 L72.5713615,17.3117423 L72.5713615,17.3117423 L77.8078349,20.3428374 L82.520661,23.0535728 L84.3996309,24.1317062 L86.8638537,25.5794854 L90.5601879,27.7234307 L88.9584431,30.3109509 L82.5514638,26.6144935 L78.3314823,24.1501885 L73.0334032,21.131415 L69.6758997,19.1907748 L65.1170875,16.5724508 L65.0862847,16.541647 Z M33.778334,23.8729542 L40.6596762,27.846646 L45.3725023,30.5881852 L47.2206694,31.6663186 L53.011593,35.0239341 L51.4098482,37.5806505 L45.3725023,34.1306236 L41.1833235,31.6663186 L35.9160473,28.5859374 L29.9279859,25.1975181 L27.938126,24.0269733 L27.938126,24.0269733 L31.0184045,22.271156 L31.6036574,22.6099979 L33.778334,23.8729542 Z" id="Shape" fill="#FDAACD"></path>
                    </g>
                    <g id="Ресурс-1" transform="translate(112.122137, 79.611095)">
                        <path d="M20.0335878,4.85902202 C20.7445428,5.39551907 21.423559,5.97299435 22.0671756,6.58850443 L22.4354198,6.94538176 C23.635923,8.09545675 24.6933163,9.38585684 25.5847328,10.788676 C26.4730434,12.2112633 27.1488612,13.7556911 27.5908397,15.373177 C28.0266242,16.9374964 28.2484848,18.5535333 28.2503817,20.1772948 C28.2525448,21.0766478 28.1974719,21.9752286 28.0854962,22.8676008 C27.9905956,23.6814501 27.8062789,24.482387 27.5358779,25.2559337 C27.3278887,25.9299381 27.0022683,26.5619087 26.5740458,27.1226766 C26.2525179,27.6344335 25.7829229,28.0365215 25.2274809,28.2756649 C24.8963017,28.4223025 24.5437414,28.5149842 24.1832061,28.5501859 C24.2381679,28.4788104 24.2931298,28.3964541 24.3480916,28.303117 C24.763849,27.7487175 25.0800024,27.1263625 25.2824427,26.4638261 C25.5509963,25.6803436 25.7352418,24.8705134 25.8320611,24.0480412 C25.9440368,23.155669 25.9991097,22.2570882 25.9969466,21.3577352 C25.9963067,19.7429098 25.7743997,18.1357711 25.3374046,16.5810695 C24.8930738,14.9730465 24.2173191,13.4380098 23.3312977,12.0240206 C22.4627397,10.6246833 21.4294161,9.33438308 20.2534351,8.18072634 L19.8137405,7.76894481 C19.1881195,7.18481061 18.5312791,6.63496287 17.8461069,6.1218187 L17.7636641,6.05593366 C16.8811021,5.40616704 15.9637081,4.80498758 15.0155725,4.25507578 L14.6748092,4.05193023 C14.3670229,3.87989705 14.0647328,3.72067486 13.7679389,3.57426365 C12.8590858,3.09346381 11.9124246,2.68765263 10.9374046,2.36088075 C10.0344626,2.05779223 9.09591321,1.87323213 8.14534351,1.81183872 L7.82656489,1.81183872 C7.12186434,1.78783931 6.417613,1.87115005 5.73801527,2.05890764 C6.1471627,1.72204566 6.5933993,1.43284861 7.0680916,1.19691164 C7.21465649,1.12370603 7.36671756,1.05599085 7.52427481,0.993766085 C8.34098765,0.680722016 9.21094141,0.529665429 10.0854962,0.549042036 C11.1402282,0.595283094 12.1842933,0.779879628 13.1908397,1.09808407 L13.7954198,1.30672005 C14.8884163,1.73799843 15.9452074,2.25574212 16.9557252,2.85501859 L17.2140458,3.00875036 C18.1645474,3.55482673 19.0821548,4.15614606 19.9621374,4.80960824 L20.0335878,4.85902202 Z" id="Path" fill="#FF932E"></path>
                        <path d="M6.59541985,8.78467258 C6.50015267,9.09945668 6.41770992,9.42522162 6.3480916,9.7619674 C6.18084744,10.4866689 6.0524207,11.2197665 5.96335878,11.9581355 C5.90839695,12.734115 5.88091603,13.5064341 5.88091603,14.2750929 C5.87485449,15.5829186 5.99448718,16.8883055 6.23816794,18.1732914 C6.29312977,18.3746068 6.3389313,18.5576208 6.37557252,18.7223334 L6.37557252,18.9419502 L6.87022901,20.3145553 C7.04976664,20.7099967 7.25161767,21.0949446 7.47480916,21.4675436 C7.51374728,21.5448174 7.55974401,21.618335 7.61221374,21.6871604 C8.3044165,22.8672518 9.16540751,23.94005 10.1679389,24.8716042 C11.4017317,25.9889447 12.7567132,26.9649817 14.2076336,27.781527 C14.9362059,28.2099851 15.6991319,28.5772748 16.4885496,28.8796111 L20.2534351,30.197312 L20.4458015,30.3894767 C20.5107414,30.4802989 20.5574067,30.5828551 20.5832061,30.6914498 L20.6656489,32.7778096 L20.5832061,33.2444953 L20.5007634,33.4915642 L18.0824427,34.8641693 L18.2473282,34.6994567 L18.3572519,34.4523878 L18.4122137,34.0131541 L18.3572519,31.9267944 C18.3096158,31.8134769 18.2545339,31.7034286 18.1923664,31.5973692 L18,31.4052045 L14.2351145,30.1424078 C13.4447245,29.8205978 12.6818956,29.4349927 11.9541985,28.9894195 C10.5033524,28.1727581 9.14838341,27.1967301 7.91450382,26.0794967 C6.91191468,25.1479961 6.05091649,24.0751889 5.35877863,22.8950529 C4.7226572,21.7915187 4.25928173,20.5972635 3.98473282,19.3537318 C3.73962654,18.0689459 3.6199812,16.7634209 3.62748092,15.4555333 C3.62748092,14.7234773 3.65496183,13.9639691 3.70992366,13.1770089 C3.79952529,12.4387195 3.92794704,11.7056504 4.09465649,10.9808407 C4.25911992,10.286978 4.47969148,9.60759549 4.75419847,8.94938519 C4.89578432,8.62648573 5.06112229,8.31450812 5.24885496,8.01601373 C5.3967804,7.77551178 5.5621064,7.54613309 5.74351145,7.32971118 C6.11045928,6.93163894 6.53688247,6.59271014 7.00763359,6.32496426 L7.2,6.23162711 C7.53301664,6.06585119 7.8831922,5.93697442 8.24427481,5.84729768 C8.1712219,5.93852822 8.08827286,6.02139028 7.99694656,6.0943666 C7.84923521,6.26942747 7.71160848,6.45273737 7.58473282,6.64340864 C7.36223923,6.99282983 7.16920815,7.36012256 7.00763359,7.74149271 C6.85087273,8.08127256 6.71325335,8.42954277 6.59541985,8.78467258 Z" id="Path" fill="#FF932E"></path>
                        <path d="M14.4,20.0949385 L14.3450382,20.4792679 L13.4381679,21.02831 L12.6412214,21.302831 C12.4052971,21.3490155 12.1626418,21.3490155 11.9267176,21.302831 C11.6971749,21.2627405 11.4748892,21.188723 11.2671756,21.0832142 C10.7221577,20.7809302 10.3031046,20.29417 10.0854962,19.7106091 C9.83302471,19.0724917 9.70252715,18.3927536 9.70076336,17.7066057 L10.0030534,15.373177 L10.3877863,14.2750929 C10.5374969,13.9661265 10.7423778,13.6870363 10.9923664,13.4515299 C11.1923836,13.2326825 11.46656,13.095738 11.7618321,13.0672005 C12.0469082,13.0392927 12.3338574,13.0966224 12.5862595,13.2319131 L12.2564885,14.1652845 L11.9541985,16.4712611 C11.9599848,17.157016 12.0903425,17.8360256 12.3389313,18.4752645 C12.5530116,19.0540426 12.9739381,19.5332001 13.5206107,19.8204175 C13.7212149,19.9420503 13.946613,20.0171042 14.1801527,20.0400343 L14.4,20.0949385 Z" id="Path" fill="#FF932E"></path>
                        <path d="M21.3251908,14.5221619 L20.1435115,20.9185016 C20.0027323,21.6288554 20.0309717,22.3623121 20.2259542,23.0597655 C20.4606226,23.627837 20.8889601,24.0946243 21.4351145,24.3774664 C21.4817699,24.4190732 21.5386864,24.4475016 21.6,24.4598227 C21.4556067,24.7751632 21.2708578,25.0704514 21.0503817,25.33829 C20.8602472,25.6102653 20.5572226,25.7817992 20.2259542,25.8049757 C19.8625428,25.8686487 19.4885453,25.7899949 19.1816794,25.5853589 C18.6336838,25.2998217 18.2122407,24.8200761 18,24.2402059 C17.8117402,23.5596204 17.792872,22.8433809 17.9450382,22.1538462 L19.319084,14.5221619 L19.319084,14.2201887 C19.2686619,14.0967615 19.1938959,13.9847301 19.0992366,13.8907635 L18.659542,13.5064341 L17.9725191,13.0672005 C17.6339385,12.8466083 17.2631031,12.6799073 16.8732824,12.5730626 C16.8555011,12.5667826 16.8361019,12.5667826 16.8183206,12.5730626 C16.5801527,12.5364598 16.4427481,12.6279668 16.4061069,12.8475836 L16.1312977,14.1378324 L15.2519084,12.4907063 C15.1603053,12.3442951 15.059542,12.1978839 14.9496183,12.0514727 C14.8396947,11.9050615 14.6931298,11.7311982 14.5099237,11.5298828 L14.3175573,11.271833 C14.0481508,10.9304289 13.744257,10.6176545 13.410687,10.3384615 L12.3114504,9.59725479 L11.9926718,9.43254218 L11.8992366,9.37763798 C11.3595698,9.10259795 10.7716033,8.93478365 10.1679389,8.88350014 L9.89312977,8.88350014 C9.4932603,8.89219321 9.09981791,8.98577175 8.7389313,9.15802116 L10.3163359,8.29053474 L10.7725191,8.03248499 L10.9923664,7.92267658 C11.4336156,7.69943184 11.9287096,7.6043213 12.421374,7.64815556 C12.53216,7.65538637 12.6423328,7.67006068 12.751145,7.69207892 C13.2407396,7.77892255 13.7136647,7.94195696 14.1526718,8.17523592 L14.2900763,8.23563054 C14.3945038,8.28504432 14.4989313,8.33994853 14.608855,8.40034315 L15.6641221,9.1140978 C15.9934345,9.38781334 16.2969895,9.69105011 16.5709924,10.0200172 L16.7358779,10.239634 C16.9703817,10.5617386 17.1993893,10.9003146 17.4229008,11.2553617 L17.8351145,12.0240206 L18.5770992,11.584787 C18.6137405,11.3834715 18.751145,11.3011152 18.989313,11.337718 C19.1121726,11.3449978 19.232936,11.372837 19.3465649,11.4200743 C19.8563127,12.0123623 20.3159093,12.6459406 20.7206107,13.3142694 C20.940458,13.7169002 21.1419847,14.119531 21.3251908,14.5221619 Z" id="Path" fill="#FF932E"></path>
                        <path d="M25.3374046,16.5810695 C24.8930738,14.9730465 24.2173191,13.4380098 23.3312977,12.0240206 C22.4627397,10.6246833 21.4294161,9.33438308 20.2534351,8.18072634 L19.8137405,7.76894481 C19.1881195,7.18481061 18.5312791,6.63496287 17.8461069,6.1218187 L17.7636641,6.05593366 C16.8811021,5.40616704 15.9637081,4.80498758 15.0155725,4.25507578 L14.6748092,4.05193023 C14.3670229,3.87989705 14.0647328,3.72067486 13.7679389,3.57426365 C12.8590858,3.09346381 11.9124246,2.68765263 10.9374046,2.36088075 C10.0344626,2.05779223 9.09591321,1.87323213 8.14534351,1.81183872 L7.82656489,1.81183872 C7.12186434,1.78783931 6.417613,1.87115005 5.73801527,2.05890764 C5.5792101,2.08617741 5.42422409,2.13225583 5.27633588,2.19616814 C4.53790732,2.47873523 3.86472195,2.90837493 3.29770992,3.45896483 C3.15480916,3.60537604 3.01740458,3.75727767 2.88549618,3.91466972 C2.47496695,4.37850908 2.10707007,4.87832422 1.78625954,5.40806405 C1.69465649,5.56179582 1.61221374,5.71735774 1.5389313,5.87474979 C1.21920496,6.50725702 0.961514926,7.16919376 0.769465649,7.85130112 C0.485081031,8.77422588 0.28276984,9.72041696 0.164885496,10.6788676 C0.0546363527,11.6908559 -0.000406847697,12.7080874 1.62694641e-12,13.7260509 C-0.0042138106,15.5383128 0.207971923,17.3446083 0.632061069,19.1066629 C1.05020446,20.8532724 1.74606426,22.5215848 2.69312977,24.0480412 C3.66831942,25.6911592 4.87104935,27.1883742 6.26564885,28.4952817 C7.87321165,29.971659 9.64331797,31.2610082 11.5419847,32.3385759 C12.3584762,32.8263498 13.2026466,33.2663247 14.070229,33.6562768 L17.4778626,34.8641693 C17.8076336,34.9373749 18.0091603,34.9465256 18.0824427,34.8916214 L18.2473282,34.7269088 L18.3572519,34.4798399 L18.4122137,34.0406062 L18.3572519,31.9542465 C18.3096304,31.8409223 18.254548,31.7308731 18.1923664,31.6248213 L18,31.4326566 L14.2351145,30.1424078 C13.4447245,29.8205978 12.6818956,29.4349927 11.9541985,28.9894195 C10.5033524,28.1727581 9.14838341,27.1967301 7.91450382,26.0794967 C6.91191468,25.1479961 6.05091649,24.0751889 5.35877863,22.8950529 C4.7226572,21.7915187 4.25928173,20.5972635 3.98473282,19.3537318 C3.73962654,18.0689459 3.6199812,16.7634209 3.62748092,15.4555333 C3.62748092,14.7234773 3.65496183,13.9639691 3.70992366,13.1770089 C3.79951525,12.438718 3.92793709,11.7056483 4.09465649,10.9808407 C4.25911992,10.286978 4.47969148,9.60759549 4.75419847,8.94938519 C4.89578432,8.62648573 5.06112229,8.31450812 5.24885496,8.01601373 C5.39676406,7.77550091 5.5620909,7.54612105 5.74351145,7.32971118 C6.11045928,6.93163894 6.53688247,6.59271014 7.00763359,6.32496426 L7.2,6.23162711 C7.53301664,6.06585119 7.8831922,5.93697442 8.24427481,5.84729768 C8.48244275,5.81069488 8.7389313,5.78324278 9.01374046,5.76494138 C9.82312369,5.77598915 10.6273183,5.89603016 11.4045802,6.1218187 C11.9855956,6.29582794 12.5516888,6.51615249 13.0974046,6.78066914 C13.500458,6.97100372 13.9181679,7.19062053 14.3505344,7.43951959 C14.5264122,7.54200743 14.7096183,7.64815556 14.9001527,7.75796397 L14.9935878,7.81286817 C15.9264112,8.3758494 16.8123287,9.01296779 17.6427481,9.71804404 C17.8516031,9.89739777 18.0531298,10.0804118 18.2473282,10.2670861 C18.6327988,10.6328231 18.9996716,11.0176356 19.3465649,11.4200743 C19.8563127,12.0123623 20.3159093,12.6459406 20.7206107,13.3142694 C20.940458,13.7169002 21.1419847,14.119531 21.3251908,14.5221619 C21.6097103,15.1482033 21.8306632,15.8011702 21.9847328,16.4712611 C22.2375891,17.4673837 22.3668039,18.4907988 22.3694656,19.5184444 L22.0396947,22.8126966 C21.9770097,23.3008718 21.8571031,23.7799952 21.6824427,24.2402059 C21.6471916,24.3102613 21.6195531,24.3838868 21.6,24.4598227 C21.4556067,24.7751632 21.2708578,25.0704514 21.0503817,25.33829 C20.8602472,25.6102653 20.5572226,25.7817992 20.2259542,25.8049757 C19.8625428,25.8686487 19.4885453,25.7899949 19.1816794,25.5853589 C18.6336838,25.2998217 18.2122407,24.8200761 18,24.2402059 C17.8117402,23.5596204 17.792872,22.8433809 17.9450382,22.1538462 L19.319084,14.5221619 L19.319084,14.2201887 C19.2686619,14.0967615 19.1938959,13.9847301 19.0992366,13.8907635 L18.659542,13.5064341 L17.9725191,13.0672005 C17.6339385,12.8466083 17.2631031,12.6799073 16.8732824,12.5730626 C16.8555011,12.5667826 16.8361019,12.5667826 16.8183206,12.5730626 C16.5801527,12.5364598 16.4427481,12.6279668 16.4061069,12.8475836 L16.1312977,14.1378324 L15.2519084,12.4907063 C15.1603053,12.3442951 15.059542,12.1978839 14.9496183,12.0514727 C14.8396947,11.9050615 14.6931298,11.7311982 14.5099237,11.5298828 L14.3175573,11.271833 C14.0481508,10.9304289 13.744257,10.6176545 13.410687,10.3384615 L12.3114504,9.59725479 L11.9926718,9.43254218 L11.8992366,9.37763798 C11.3595698,9.10259795 10.7716033,8.93478365 10.1679389,8.88350014 L9.89312977,8.88350014 C9.4932603,8.89219321 9.09981791,8.98577175 8.7389313,9.15802116 C8.65628283,9.1717696 8.57968334,9.21002919 8.51908397,9.26782957 C8.34760793,9.38428926 8.18750968,9.51664544 8.04091603,9.66313983 C7.77798088,9.91076963 7.55049372,10.1934448 7.3648855,10.5031741 C7.04938059,11.0612187 6.79156303,11.6498981 6.59541985,12.2601087 C6.42085665,12.9221133 6.29230605,13.5953791 6.21068702,14.2750929 L6.10076336,16.169288 L6.37557252,18.7497855 L6.37557252,18.9694023 L6.87022901,20.3145553 C7.04976664,20.7099967 7.25161767,21.0949446 7.47480916,21.4675436 C7.50673411,21.5168751 7.54356197,21.5628616 7.58473282,21.6048041 C7.89374895,22.0230417 8.23362704,22.417621 8.60152672,22.7852445 C9.01739307,23.1653858 9.46824722,23.5054698 9.9480916,23.8009723 L11.1847328,24.3500143 C11.5557669,24.4790141 11.9460715,24.5439966 12.3389313,24.542179 C12.755717,24.5590248 13.1726541,24.512747 13.5755725,24.4049185 C14.0136787,24.2867491 14.430832,24.101542 14.8122137,23.8558765 C14.9409908,24.3702627 15.1062949,24.8748288 15.3068702,25.3657421 C15.5328555,25.8336385 15.8093025,26.2754899 16.1312977,26.683443 C16.4429423,27.1244813 16.8126843,27.5215371 17.2305344,27.8638833 C17.6808733,28.2344083 18.1690687,28.5564634 18.6870229,28.8247069 C19.4325555,29.268418 20.2515794,29.57523 21.1053435,29.7306263 C21.736619,29.8299835 22.3830897,29.7540079 22.9740458,29.5110094 C23.4487075,29.2927335 23.8635351,28.963103 24.1832061,28.5501859 C24.2381679,28.4788104 24.2931298,28.3964541 24.3480916,28.303117 C24.763849,27.7487175 25.0800024,27.1263625 25.2824427,26.4638261 C25.5509963,25.6803436 25.7352418,24.8705134 25.8320611,24.0480412 C25.9440368,23.155669 25.9991097,22.2570882 25.9969466,21.3577352 C25.9963067,19.7429098 25.7743997,18.1357711 25.3374046,16.5810695 Z M14.4,20.0949385 L14.3450382,20.4792679 L13.4381679,21.02831 L12.6412214,21.302831 C12.4052971,21.3490155 12.1626418,21.3490155 11.9267176,21.302831 C11.6971749,21.2627405 11.4748892,21.188723 11.2671756,21.0832142 C10.7221577,20.7809302 10.3031046,20.29417 10.0854962,19.7106091 C9.83302471,19.0724917 9.70252715,18.3927536 9.70076336,17.7066057 L10.0030534,15.373177 L10.3877863,14.2750929 C10.5374969,13.9661265 10.7423778,13.6870363 10.9923664,13.4515299 C11.1923836,13.2326825 11.46656,13.095738 11.7618321,13.0672005 C12.0469082,13.0392927 12.3338574,13.0966224 12.5862595,13.2319131 L12.8061069,13.3417215 C13.2961844,13.6495738 13.7021937,14.0740218 13.9877863,14.5770661 C14.415044,15.2495068 14.765332,15.967765 15.0320611,16.71833 L14.4,20.0949385 Z" id="Shape" fill="#FED042"></path>
                    </g>
                </g>
                <g id="Group-545" transform="translate(106.625954, 0.000000)">
                    <mask id="mask-9" fill="white">
                        <use xlink:href="#path-8"></use>
                    </mask>
                    <g id="Clip-544"></g>
                    <path d="M6.10860241,4.97769238 C6.3697742,4.51128634 6.50587781,3.96879988 6.46909305,3.3972779 C6.42495134,2.62397742 6.0791746,1.91499614 5.50165388,1.40044259 C4.92045468,0.88588904 4.17372406,0.627877189 3.40124411,0.67381947 C1.80478555,0.7682768 0.579853059,2.14434001 0.675493434,3.74092616 C0.719635145,4.5138591 1.06541188,5.22320793 1.64661108,5.73739394 C2.22413181,6.25194749 2.97086242,6.50995934 3.74334237,6.46401706 C4.76963716,6.40337325 5.64143596,5.81384189 6.10860241,4.97769238 Z M0.451106401,1.83560788 C1.02494865,0.80613324 2.09906363,0.0813478112 3.36078088,0.00637000823 C4.31350615,-0.049863344 5.22944666,0.267689704 5.94307099,0.90059057 C6.65669532,1.53385897 7.08339853,2.40639478 7.13857567,3.35795131 C7.2562869,5.32170818 5.75179024,7.01495689 3.78380561,7.13109898 C2.83108034,7.18769987 1.91513983,6.87014682 1.20151549,6.23724596 C0.487891161,5.60434509 0.0648664267,4.73180929 0.00601081159,3.78025276 C-0.0344524238,3.07751962 0.131078994,2.40933509 0.451106401,1.83560788 L0.451106401,1.83560788 Z" id="Fill-543" fill="url(#linearGradient-10)" opacity="0.588146391" mask="url(#mask-9)"></path>
                </g>
                <g id="Group-548" transform="translate(88.488550, 37.883900)">
                    <mask id="mask-12" fill="white">
                        <use xlink:href="#path-11"></use>
                    </mask>
                    <g id="Clip-547"></g>
                    <path d="M4.83114504,3.28766371 L1.13221374,1.48076637 L1.41251908,5.58485559 L4.83114504,3.28766371 Z M0.13740458,0.409585359 C0.175877863,0.342053188 0.225343511,0.283305691 0.296793893,0.238833286 C0.439694656,0.138907635 0.632061069,0.125730626 0.791450382,0.204243637 L6.04580153,2.77101516 C6.20519084,2.84897912 6.3151145,3.00710323 6.32610687,3.18499285 C6.33709924,3.36288247 6.25465649,3.53418359 6.10625954,3.63356019 L1.25312977,6.89651701 C1.10473282,6.99534458 0.917862595,7.00907063 0.758473282,6.93055762 C0.593587786,6.85149557 0.489160305,6.6939205 0.478167939,6.51603088 L0.0769465649,0.686851587 C0.0659541985,0.588573063 0.0879389313,0.492490706 0.13740458,0.409585359 L0.13740458,0.409585359 Z" id="Fill-546" fill="url(#linearGradient-13)" opacity="0.588146391" mask="url(#mask-12)"></path>
                </g>
                <g id="Group-548-Copy" transform="translate(37.587583, 132.471712) rotate(-54.000000) translate(-37.587583, -132.471712) translate(34.839492, 129.451980)">
                    <mask id="mask-15" fill="white">
                        <use xlink:href="#path-14"></use>
                    </mask>
                    <g id="Clip-547"></g>
                    <path d="M4.18710381,2.72564529 L1.26094562,1.27267351 L1.48269015,4.57287529 L4.18710381,2.72564529 Z M0.473969946,0.411309805 C0.50440547,0.357005482 0.543536857,0.309765135 0.600059972,0.274003752 C0.713106202,0.193651013 0.865283819,0.183055047 0.991373845,0.246189342 L5.14799676,2.31019514 C5.27408679,2.37288793 5.36104542,2.50003952 5.36974129,2.64308505 C5.37843715,2.78613059 5.31321817,2.92387814 5.19582401,3.00378938 L1.35660013,5.62761536 C1.23920596,5.7070851 1.09137628,5.71812256 0.965286253,5.65498827 C0.834848296,5.59141248 0.752237589,5.46470239 0.743541726,5.32165685 L0.426142695,0.634266581 C0.417446832,0.555238338 0.434838559,0.477976089 0.473969946,0.411309805 L0.473969946,0.411309805 Z" id="Fill-546" fill="url(#linearGradient-16)" opacity="0.588146391" mask="url(#mask-15)"></path>
                </g>
                <g id="Group-575" transform="translate(2.198473, 56.002288)">
                    <mask id="mask-18" fill="white">
                        <use xlink:href="#path-17"></use>
                    </mask>
                    <g id="Clip-574"></g>
                    <path d="M7.63969466,1.78822991 C6.91639695,1.45056906 6.09251908,1.30781813 5.24445802,1.41982271 C4.09575573,1.57080927 3.07456489,2.15938233 2.36940458,3.07738061 C1.66424427,3.9953789 1.35920611,5.13354304 1.51035115,6.28049185 C1.82198473,8.64905919 4.00561832,10.3219903 6.37667176,10.0101344 C7.52482443,9.85969688 8.54546565,9.27057478 9.25062595,8.35257649 C9.95633588,7.43457821 10.2608244,6.29696311 10.1096794,5.14946526 C9.9090687,3.62861882 8.93734351,2.39437232 7.63969466,1.78822991 Z M3.55877863,10.5465485 C1.96158779,9.80094939 0.765618321,8.28229911 0.519389313,6.41061481 C0.333068702,4.99902774 0.708458015,3.59951959 1.57630534,2.46959108 C2.44415267,1.33966257 3.70058015,0.615476122 5.11364885,0.429350872 C8.03047328,0.046119531 10.7170076,2.10447812 11.1006412,5.01934229 C11.2869618,6.43038033 10.9115725,7.83043752 10.0437252,8.96036603 C9.17642748,10.0897455 7.92054962,10.814481 6.5069313,11.0006062 C5.46320611,11.1378667 4.44861069,10.9621733 3.55877863,10.5465485 L3.55877863,10.5465485 Z" id="Fill-573" fill="url(#linearGradient-19)" opacity="0.588146391" mask="url(#mask-18)"></path>
                </g>
                <g id="Group-578" transform="translate(100.030534, 122.985416)">
                    <mask id="mask-22" fill="white">
                        <use xlink:href="#path-21"></use>
                    </mask>
                    <use id="Combined-Shape" fill="url(#linearGradient-20)" xlink:href="#path-21"></use>
                </g>
            </g>
        </g>
    </g>
</svg>