<?xml version="1.0" encoding="UTF-8"?>
<svg width="161px" height="145px" viewBox="0 0 161 145" version="1.1" xmlns="http://www.w3.org/2000/svg" xmlns:xlink="http://www.w3.org/1999/xlink">
    <!-- Generator: Sketch 54.1 (76490) - https://sketchapp.com -->
    <title>Group 26</title>
    <desc>Created with Sketch.</desc>
    <defs>
        <linearGradient x1="50%" y1="-52.9605993%" x2="50%" y2="100%" id="linearGradient-1">
            <stop stop-color="#E0C3FC" offset="0%"></stop>
            <stop stop-color="#8EC5FC" offset="100%"></stop>
        </linearGradient>
        <linearGradient x1="7.3176932e-06%" y1="50.1335141%" x2="99.8722535%" y2="50.1335141%" id="linearGradient-2">
            <stop stop-color="#FFC107" offset="48%"></stop>
            <stop stop-color="#FF9800" offset="100%"></stop>
        </linearGradient>
        <linearGradient x1="50%" y1="-52.9605993%" x2="50%" y2="100%" id="linearGradient-3">
            <stop stop-color="#E0C3FC" offset="0%"></stop>
            <stop stop-color="#8EC5FC" offset="100%"></stop>
        </linearGradient>
        <linearGradient x1="50%" y1="-52.9605993%" x2="50%" y2="100%" id="linearGradient-4">
            <stop stop-color="#E0C3FC" offset="0%"></stop>
            <stop stop-color="#8EC5FC" offset="100%"></stop>
        </linearGradient>
        <path d="M6.78733601,5.53227981 C7.07752689,5.01390934 7.22875312,4.41098199 7.18788117,3.77578414 C7.13883482,2.91632673 6.75463844,2.1283546 6.11294875,1.55647229 C5.46717186,0.984589983 4.63747118,0.697831853 3.77916012,0.748892774 C2.00531728,0.853874026 0.644281177,2.38325072 0.75054826,4.15771983 C0.799594606,5.01676876 1.18379098,5.80514937 1.82956787,6.37662319 C2.47125756,6.9485055 3.30095825,7.23526363 4.1592693,7.18420271 C5.29959685,7.1168023 6.26826218,6.46158856 6.78733601,5.53227981 Z M0.501229335,2.04012133 C1.13883183,0.895948225 2.33229292,0.0904111423 3.73420097,0.00707971993 C4.79278461,-0.0554188468 5.81049628,0.297514236 6.60341221,1.00092948 C7.39632814,1.70475321 7.87044281,2.67450221 7.93175075,3.732076 C8.062541,5.91462398 6.39087804,7.79652527 4.20422845,7.92560728 C3.14564482,7.98851433 2.12793314,7.63558125 1.33501722,6.93216601 C0.54210129,6.22875077 0.0720738075,5.25900176 0.00667867955,4.20142798 C-0.0382804709,3.42040014 0.145643326,2.67777011 0.501229335,2.04012133 L0.501229335,2.04012133 Z" id="path-5"></path>
        <linearGradient x1="50%" y1="0%" x2="50%" y2="100%" id="linearGradient-7">
            <stop stop-color="#E0C3FC" offset="0%"></stop>
            <stop stop-color="#8EC5FC" offset="100%"></stop>
        </linearGradient>
        <path d="M5.36793893,3.65395734 L1.25801527,1.64574531 L1.56946565,6.20708985 L5.36793893,3.65395734 Z M0.152671756,0.455219134 C0.195419847,0.380162896 0.250381679,0.314870071 0.329770992,0.265442793 C0.488549618,0.154383969 0.702290076,0.139738849 0.879389313,0.226999354 L6.71755725,3.07974661 C6.89465649,3.1663969 7.01679389,3.34213833 7.02900763,3.53984745 C7.04122137,3.73755656 6.94961832,3.92794312 6.78473282,4.03839173 L1.39236641,7.66488946 C1.22748092,7.77472786 1.01984733,7.78998319 0.842748092,7.70272269 C0.659541985,7.61485197 0.54351145,7.43972075 0.53129771,7.24201164 L0.0854961832,0.763376858 C0.0732824427,0.654148675 0.0977099237,0.547361345 0.152671756,0.455219134 L0.152671756,0.455219134 Z" id="path-8"></path>
        <linearGradient x1="50%" y1="0%" x2="50%" y2="100%" id="linearGradient-10">
            <stop stop-color="#E0C3FC" offset="0%"></stop>
            <stop stop-color="#8EC5FC" offset="100%"></stop>
        </linearGradient>
        <path d="M8.48854962,1.98746477 C7.6848855,1.61218358 6.76946565,1.45352812 5.82717557,1.57801164 C4.55083969,1.7458203 3.41618321,2.39996897 2.63267176,3.42024564 C1.84916031,4.4405223 1.51022901,5.70549451 1.67816794,6.98023012 C2.02442748,9.61269037 4.45068702,11.4720103 7.08519084,11.1254092 C8.36091603,10.9582107 9.49496183,10.3034518 10.2784733,9.28317518 C11.0625954,8.26289851 11.400916,6.99853652 11.2329771,5.72319069 C11.0100763,4.03289981 9.93038168,2.66114027 8.48854962,1.98746477 Z M3.95419847,11.7215876 C2.17954198,10.8929179 0.850687023,9.20506787 0.577099237,7.12485068 C0.370076336,5.55599224 0.787175573,4.0005585 1.75145038,2.7447395 C2.71572519,1.48892049 4.11175573,0.684049127 5.68183206,0.477186813 C8.92274809,0.0512579186 11.9077863,2.33894764 12.3340458,5.57857014 C12.5410687,7.14681836 12.1239695,8.70286231 11.1596947,9.95868132 C10.1960305,11.2138901 8.80061069,12.0193717 7.22992366,12.226234 C6.07022901,12.3787873 4.94290076,12.1835191 3.95419847,11.7215876 L3.95419847,11.7215876 Z" id="path-11"></path>
        <linearGradient x1="50%" y1="0%" x2="50%" y2="100%" id="linearGradient-13">
            <stop stop-color="#E0C3FC" offset="0%"></stop>
            <stop stop-color="#8EC5FC" offset="100%"></stop>
        </linearGradient>
        <linearGradient x1="50%" y1="0%" x2="50%" y2="100%" id="linearGradient-14">
            <stop stop-color="#E0C3FC" offset="0%"></stop>
            <stop stop-color="#8EC5FC" offset="100%"></stop>
        </linearGradient>
        <path d="M4.2351145,2.71178798 C4.0940458,2.64527473 4.0329771,2.47868649 4.0989313,2.337117 L4.87816794,0.671844861 C4.94412214,0.530885585 5.11145038,0.470474467 5.25251908,0.535767292 C5.39358779,0.60167033 5.45465649,0.769478992 5.38870229,0.910438268 L4.60946565,2.57571041 C4.54351145,2.71666968 4.37557252,2.7770808 4.2351145,2.71178798 Z M2.10320611,7.26947123 C1.9621374,7.2035682 1.9010687,7.03575953 1.9670229,6.89541047 L2.7859542,5.14470847 C2.8519084,5.00435941 3.01923664,4.94333807 3.16030534,5.00924111 C3.30076336,5.07453394 3.36183206,5.2423426 3.29587786,5.38330187 L2.47755725,7.13339367 C2.41160305,7.27435294 2.24366412,7.33476406 2.10320611,7.26947123 Z M6.67236641,5.61213187 L4.84030534,4.75600259 C4.69923664,4.69009955 4.63877863,4.5229011 4.70473282,4.38194182 C4.77007634,4.24098255 4.93740458,4.18057143 5.07847328,4.24586425 L6.91114504,5.10199354 C7.05221374,5.16789657 7.11267176,5.33509502 7.04732824,5.4760543 C6.98137405,5.61701357 6.81343511,5.67742469 6.67236641,5.61213187 Z M2.19603053,3.52093083 L0.444580153,2.70324499 C0.30351145,2.63734195 0.242442748,2.46953329 0.308396947,2.32857401 C0.374351145,2.18822495 0.542290076,2.12720362 0.682748092,2.19310666 L2.43419847,3.01140271 C2.57526718,3.07669554 2.63572519,3.2445042 2.57038168,3.38485326 C2.50442748,3.52581254 2.33709924,3.58683387 2.19603053,3.52093083 Z M4.73099237,7.38602198 C4.66625954,7.35551131 4.61251908,7.2999819 4.58564885,7.22736652 L3.92610687,5.41137169 C3.8729771,5.26492049 3.9480916,5.10382418 4.09465649,5.05073562 C4.24061069,4.99764706 4.40244275,5.07331351 4.45557252,5.21915449 L5.1151145,7.03514932 C5.16763359,7.18160052 5.09251908,7.34269683 4.94656489,7.39578539 C4.87328244,7.42202456 4.79633588,7.41653264 4.73099237,7.38602198 Z M3.01374046,2.65686878 C2.94839695,2.62635811 2.89465649,2.5708287 2.86839695,2.49821332 L2.24061069,0.770089205 C2.18748092,0.623638009 2.26259542,0.462541694 2.40916031,0.409453135 C2.5551145,0.356364577 2.71694656,0.432031028 2.76946565,0.57787201 L3.39725191,2.30599612 C3.45038168,2.45244732 3.37526718,2.61354363 3.22931298,2.66663219 C3.15603053,2.69348158 3.07908397,2.68737944 3.01374046,2.65686878 Z M0.327328244,5.3296031 C0.261984733,5.29909244 0.208244275,5.24356303 0.181984733,5.17033743 C0.128854962,5.02449644 0.203969466,4.86278992 0.349923664,4.80970136 L2.16732824,4.15067098 C2.31389313,4.09758242 2.47572519,4.17324887 2.52885496,4.31970006 C2.58137405,4.46554105 2.50625954,4.62724758 2.35969466,4.67972592 L0.542900763,5.33936652 C0.469618321,5.36499548 0.392671756,5.36011377 0.327328244,5.3296031 Z M4.97221374,3.64480414 C4.90687023,3.61368326 4.85312977,3.55876406 4.82687023,3.48553846 C4.77374046,3.33969748 4.84885496,3.17799095 4.99541985,3.12551261 L6.81282443,2.46648222 C6.95877863,2.41339367 7.12061069,2.4884499 7.17374046,2.63429089 C7.22625954,2.78074208 7.15053435,2.9418384 7.00519084,2.99492696 L5.18778626,3.65456755 C5.11450382,3.68080672 5.03755725,3.67470459 4.97221374,3.64480414 Z" id="path-15"></path>
        <linearGradient x1="-0.550747443%" y1="50.008221%" x2="99.9737739%" y2="50.0195559%" id="linearGradient-17">
            <stop stop-color="#F11F79" offset="34%"></stop>
            <stop stop-color="#FF4494" offset="57%"></stop>
        </linearGradient>
    </defs>
    <g id="Desktop" stroke="none" stroke-width="1" fill="none" fill-rule="evenodd">
        <g id="Group-26" transform="translate(0.000000, -11.000000)">
            <rect id="Rectangle" x="0" y="0" width="160" height="160"></rect>
            <g id="Group-20" transform="translate(0.000000, 11.076923)">
                <path d="M148.458186,89.8681165 C141.498796,96.5974074 133.113266,100.591019 123.297314,103.890836 C113.31862,107.244319 105.29712,112.444342 96.513299,118.12135 C79.7036955,128.980349 58.8469391,137.154759 43.4977368,123.185276 C30.7095901,111.544041 26.2641459,86.4128828 37.82744,69.2595022 C41.8274832,63.3266152 47.2493834,59.6489895 53.1980558,57.2069705 C57.8019599,55.3162089 62.1788809,54.7284585 64.9240926,50.2424077 C70.6414991,40.8903506 68.7571104,28.4681672 74.5087786,18.7297147 C79.5281048,10.2294448 86.9971362,7.15373729 96.05505,12.2090773 C108.530559,19.1749281 115.215857,34.1799502 127.965459,40.604418 C139.430251,46.3793122 157.957218,51.6261326 159.884433,66.7543719 C160.569666,72.1553212 158.111395,77.4738395 155.057829,81.9757755 C153.023546,84.9763505 150.822237,87.5802263 148.458186,89.8681165" id="Fill-726" stroke="#EFEEFF" stroke-width="0.5"></path>
                <path d="M133.182029,79.110078 C126.585451,85.4995057 118.637082,89.2914194 109.332862,92.4245789 C99.8743837,95.608694 92.2710662,100.54609 83.9451696,105.93638 C68.0118962,116.246945 48.2424588,124.008506 33.6934519,110.744553 C21.5719858,99.6912586 17.3582947,75.829351 28.318763,59.5423028 C32.1102732,53.9090565 37.249515,50.4171695 42.8880671,48.0984847 C47.2519572,46.3032162 51.4006975,45.7451502 54.0027939,41.4856676 C59.4221366,32.6059366 57.6359862,20.8111362 63.0878043,11.5645247 C67.8454595,3.49356138 74.9251101,0.573192616 83.5108103,5.37321247 C95.3359379,11.9872526 101.672712,26.2344453 113.757644,32.334445 C124.624745,37.8176779 142.185851,42.7995074 144.012596,57.1636942 C144.662105,62.2918683 142.331991,67.3417745 139.437615,71.61634 C137.509384,74.4653709 135.422836,76.9377378 133.182029,79.110078" id="Fill-726" fill="url(#linearGradient-1)"></path>
                <g id="Group-11" transform="translate(86.717557, 5.491920)">
                    <path d="M0.171603053,22.3674743 C0.091905244,22.2048798 0.091905244,22.0130708 0.171603053,21.8504763 C0.283358779,21.1611457 0.904223919,20.4462843 2.03419847,19.7058922 L11.0491603,14.4784682 L11.0491603,14.4784682 L32.6738931,1.78329581 C35.1166018,0.182657314 38.2403448,0.182657314 40.6830534,1.78329581 L70.9874809,19.7058922 C72.3285496,20.5101112 72.9928753,21.3398611 72.980458,22.1951417 C72.9680407,23.0504222 72.2726718,23.7908144 70.8943511,24.4163181 L58.8806107,31.4436609 L58.8806107,31.4436609 L56.1239695,33.0712471 L56.1239695,33.0712471 L40.3664122,42.4346548 C37.9639993,43.9631316 34.9272984,43.9631316 32.5248855,42.4346548 L2.23908397,24.4163181 C1.32319969,24.0259258 0.584693914,23.2940772 0.171603053,22.3674743 L0.171603053,22.3674743 Z" id="Shape" fill="#FFD22E"></path>
                    <path d="M51.1508397,16.1201525 L51.0018321,16.0435602 L37.8146565,17.843479 L33.9218321,15.469118 L51.6909924,13.5543107 L55.4161832,15.7754871 L52.0821374,26.3260754 L48.1520611,23.9325663 L51.1508397,16.1201525 Z M26.3783206,14.5883066 L28.2036641,13.630903 L47.8167939,32.9513087 L46.0659542,34.0618969 L26.3783206,14.5883066 Z M23.0442748,21.8837224 L27.0116031,24.3538239 L24.0873282,32.1662377 L37.2745038,30.3663188 L41.2045802,32.7598279 L23.5099237,34.6746352 L19.7847328,32.4343107 L23.0442748,21.8837224 Z" id="Combined-Shape" fill="#896B0E"></path>
                    <path d="M51.1508397,14.8997258 L51.0018321,14.8231335 L37.8146565,16.6230524 L33.9218321,14.2486913 L51.6909924,12.333884 L55.4161832,14.5550605 L52.0821374,25.1056488 L48.1520611,22.7121396 L51.1508397,14.8997258 Z M26.3783206,13.36788 L28.2036641,12.4104763 L47.8167939,31.730882 L46.0659542,32.8414703 L26.3783206,13.36788 Z M23.0442748,20.6632958 L27.0116031,23.1333972 L24.0873282,30.945811 L37.2745038,29.1458922 L41.2045802,31.5394013 L23.5099237,33.4542086 L19.7847328,31.213884 L23.0442748,20.6632958 Z" id="Combined-Shape" fill="#FFFFFF"></path>
                    <path d="M0.134351145,27.8821193 C0.133785727,27.6581981 0.178171738,27.4365655 0.264732824,27.2310849 L0.264732824,22.4249185 C0.689963261,23.2907188 1.4039701,23.9703685 2.27633588,24.3397258 L32.5621374,42.3580625 C34.9645503,43.8865394 38.0012512,43.8865394 40.4036641,42.3580625 L56.1798473,33.0138029 L56.1798473,33.0138029 L58.9364885,31.3862167 L58.9364885,31.3862167 L70.950229,24.3588739 C72.2912977,23.5546548 72.9866667,22.8142627 73.0363359,22.1376974 L73.0363359,27.3651214 L73.0363359,27.3651214 L73.0363359,32.764878 C73.0363359,33.5052701 72.3658015,34.3031065 71.0247328,35.1583871 L40.3664122,53.234168 C37.9756777,54.8042906 34.91562,54.8042906 32.5248855,53.234168 L2.1459542,35.2158313 C0.64346056,34.2967238 0.0225954198,33.383999 0.283358779,32.4776569 L0.283358779,27.9395636 L0.134351145,27.8821193 Z" id="Path" fill="url(#linearGradient-2)"></path>
                </g>
                <path d="M17.8507209,36.7898763 C18.0493068,37.5211104 18.4370223,38.2816695 18.9003895,38.9656052 C20.1770135,40.8603813 24.0825373,44.9327782 26.8343713,43.7105861 C29.0282733,42.7267783 25.0092718,36.5902768 24.1014503,35.5686302 C23.0706946,34.4003583 21.6143976,33.3749278 20.0635358,33.5906088 C17.8412644,33.8999407 17.4440925,35.2810556 17.8507209,36.7898763" id="Fill-540" fill="url(#linearGradient-3)"></path>
                <path d="M38.9562975,4.43563484 C39.023473,4.64127673 39.0784349,4.85424117 39.1272898,5.07391797 C40.2753814,10.2161856 36.1349234,16.5886432 33.8692746,20.9297008 C32.953244,22.6846743 31.8906486,24.4542929 30.2356868,25.5447441 C28.5807249,26.6358055 26.1929387,26.8438882 24.7150761,25.5252173 C23.8540074,24.7593995 23.4326333,23.6225721 23.1578242,22.5077124 C22.1624043,18.5230195 22.602099,14.305225 23.591412,10.3193116 C24.3730914,7.16328836 25.5883585,3.9480744 28.0494272,1.81537886 C31.73187,-1.38091849 37.4540074,-0.263617909 38.9562975,4.43563484" id="Fill-606" fill="url(#linearGradient-4)"></path>
                <g id="Group-545" transform="translate(11.603053, 61.631545)">
                    <mask id="mask-6" fill="white">
                        <use xlink:href="#path-5"></use>
                    </mask>
                    <g id="Clip-544"></g>
                    <path d="M6.78733601,5.53227981 C7.07752689,5.01390934 7.22875312,4.41098199 7.18788117,3.77578414 C7.13883482,2.91632673 6.75463844,2.1283546 6.11294875,1.55647229 C5.46717186,0.984589983 4.63747118,0.697831853 3.77916012,0.748892774 C2.00531728,0.853874026 0.644281177,2.38325072 0.75054826,4.15771983 C0.799594606,5.01676876 1.18379098,5.80514937 1.82956787,6.37662319 C2.47125756,6.9485055 3.30095825,7.23526363 4.1592693,7.18420271 C5.29959685,7.1168023 6.26826218,6.46158856 6.78733601,5.53227981 Z M0.501229335,2.04012133 C1.13883183,0.895948225 2.33229292,0.0904111423 3.73420097,0.00707971993 C4.79278461,-0.0554188468 5.81049628,0.297514236 6.60341221,1.00092948 C7.39632814,1.70475321 7.87044281,2.67450221 7.93175075,3.732076 C8.062541,5.91462398 6.39087804,7.79652527 4.20422845,7.92560728 C3.14564482,7.98851433 2.12793314,7.63558125 1.33501722,6.93216601 C0.54210129,6.22875077 0.0720738075,5.25900176 0.00667867955,4.20142798 C-0.0382804709,3.42040014 0.145643326,2.67777011 0.501229335,2.04012133 L0.501229335,2.04012133 Z" id="Fill-543" fill="url(#linearGradient-7)" mask="url(#mask-6)"></path>
                </g>
                <g id="Group-548" transform="translate(97.099237, 3.661280)">
                    <mask id="mask-9" fill="white">
                        <use xlink:href="#path-8"></use>
                    </mask>
                    <g id="Clip-547"></g>
                    <path d="M5.36793893,3.65395734 L1.25801527,1.64574531 L1.56946565,6.20708985 L5.36793893,3.65395734 Z M0.152671756,0.455219134 C0.195419847,0.380162896 0.250381679,0.314870071 0.329770992,0.265442793 C0.488549618,0.154383969 0.702290076,0.139738849 0.879389313,0.226999354 L6.71755725,3.07974661 C6.89465649,3.1663969 7.01679389,3.34213833 7.02900763,3.53984745 C7.04122137,3.73755656 6.94961832,3.92794312 6.78473282,4.03839173 L1.39236641,7.66488946 C1.22748092,7.77472786 1.01984733,7.78998319 0.842748092,7.70272269 C0.659541985,7.61485197 0.54351145,7.43972075 0.53129771,7.24201164 L0.0854961832,0.763376858 C0.0732824427,0.654148675 0.0977099237,0.547361345 0.152671756,0.455219134 L0.152671756,0.455219134 Z" id="Fill-546" fill="url(#linearGradient-10)" mask="url(#mask-9)"></path>
                </g>
                <g id="Group-575" transform="translate(76.946565, 100.685197)">
                    <mask id="mask-12" fill="white">
                        <use xlink:href="#path-11"></use>
                    </mask>
                    <g id="Clip-574"></g>
                    <path d="M8.48854962,1.98746477 C7.6848855,1.61218358 6.76946565,1.45352812 5.82717557,1.57801164 C4.55083969,1.7458203 3.41618321,2.39996897 2.63267176,3.42024564 C1.84916031,4.4405223 1.51022901,5.70549451 1.67816794,6.98023012 C2.02442748,9.61269037 4.45068702,11.4720103 7.08519084,11.1254092 C8.36091603,10.9582107 9.49496183,10.3034518 10.2784733,9.28317518 C11.0625954,8.26289851 11.400916,6.99853652 11.2329771,5.72319069 C11.0100763,4.03289981 9.93038168,2.66114027 8.48854962,1.98746477 Z M3.95419847,11.7215876 C2.17954198,10.8929179 0.850687023,9.20506787 0.577099237,7.12485068 C0.370076336,5.55599224 0.787175573,4.0005585 1.75145038,2.7447395 C2.71572519,1.48892049 4.11175573,0.684049127 5.68183206,0.477186813 C8.92274809,0.0512579186 11.9077863,2.33894764 12.3340458,5.57857014 C12.5410687,7.14681836 12.1239695,8.70286231 11.1596947,9.95868132 C10.1960305,11.2138901 8.80061069,12.0193717 7.22992366,12.226234 C6.07022901,12.3787873 4.94290076,12.1835191 3.95419847,11.7215876 L3.95419847,11.7215876 Z" id="Fill-573" fill="url(#linearGradient-13)" mask="url(#mask-12)"></path>
                </g>
                <g id="Group-578" transform="translate(64.732824, 137.297996)">
                    <mask id="mask-16" fill="white">
                        <use xlink:href="#path-15"></use>
                    </mask>
                    <use id="Combined-Shape" fill="url(#linearGradient-14)" xlink:href="#path-15"></use>
                </g>
                <g id="Group-21" transform="translate(0.000000, 55.529412)">
                    <path d="M55.5627965,16.8346305 C53.4730598,15.5218118 51.0385428,14.8625629 48.5713696,14.9414045 L45.4640687,15.5661691 L45.4640687,15.5661691 L45.4640687,15.5661691 L45.4640687,15.5661691 C45.3765015,15.5488243 45.2863785,15.5488243 45.1988114,15.5661691 L44.2325166,15.8312207 L43.7020018,15.8312207 C42.6901892,15.8979079 41.6797943,15.6815627 40.7841705,15.2064562 C40.013661,14.7394604 39.6915627,14.2977077 39.8178757,13.881198 L40.0831331,13.5214851 L40.7083827,12.9913818 C40.7083827,12.9913818 40.8599583,12.9913818 40.9736401,12.9913818 L41.6746775,12.7263302 C42.6808562,12.4236933 43.7390225,12.3334321 44.7819783,12.4612786 L43.0199114,10.0758139 C41.6093072,9.92357685 40.1863973,9.92357685 38.7757931,10.0758139 C38.035309,10.2424218 37.3212685,10.5099792 36.653734,10.8709688 L36.0284845,11.2306817 L35.5927045,11.760785 L35.4221819,12.4612786 C35.1316619,13.7234292 36.3126888,15.1117949 38.9652627,16.6263756 C41.010269,17.8782348 43.3929636,18.4668329 45.786167,18.3113467 C46.5338937,18.2538356 47.2754453,18.1335062 48.0029609,17.9516338 L48.8934678,17.7812434 L48.8934678,17.7812434 L48.8934678,17.7812434 C48.9725436,17.7110909 49.0620253,17.6536115 49.1587252,17.6108531 L49.3292478,17.6108531 L50.6555348,17.3458015 C51.5934351,17.1377008 52.5754287,17.2933445 53.4028435,17.7812434 L53.5733661,17.7812434 C53.6283939,17.7609559 53.6888609,17.7609559 53.7438887,17.7812434 C53.8575704,17.7812434 53.8575704,17.8380402 53.7438887,17.9516338 C53.9495848,18.0969325 54.1289919,18.2762005 54.2744034,18.481737 C54.5649234,19.0749478 54.3565069,19.5798081 53.6491539,19.9963178 C52.5015147,20.4838847 51.2560366,20.6977852 50.0113383,20.6210823 L47.7945444,20.3560307 L49.4808235,22.8361567 L49.4808235,22.8361567 L49.6513461,22.8361567 L50.2765957,23.006547 L52.8344348,23.006547 C54.4127174,23.1584882 56.0028638,22.8838613 57.4385452,22.2113921 C58.3491142,21.7937406 58.8572819,20.8094411 58.6700973,19.8259274 C58.7837791,19.0812586 57.7480121,18.0841596 55.5627965,16.8346305 Z" id="Path" fill="#FFFFFF"></path>
                    <path d="M45.5128138,22.126123 C43.4221478,20.8273374 40.9783654,20.2119025 38.5213869,20.3654229 L37.2898347,20.3654229 L35.3951391,20.8008649 L35.3951391,20.8008649 L35.3951391,20.8008649 C35.2888927,20.8830186 35.1660686,20.9411533 35.0351469,20.9712552 L33.5193904,21.2363068 C32.5153427,21.3645299 31.4961782,21.179371 30.6015591,20.7062036 C29.8310496,20.2392078 29.5342139,19.7974551 29.7110522,19.3809454 L29.9763096,18.9455035 L30.6015591,18.4154002 C30.6565869,18.3951127 30.7170539,18.3951127 30.7720817,18.4154002 L31.5678539,18.0556873 C32.5538594,17.8199744 33.5740927,17.7622701 34.58042,17.8852969 L32.8941408,15.405171 C31.4781107,15.2744871 30.0509957,15.3317821 28.6500226,15.5755613 C27.8751364,15.674817 27.1243312,15.9120669 26.4332287,16.2760549 L25.902714,16.6357678 L25.466934,17.2605324 L25.2964113,17.8852969 C25.0058914,19.1474476 26.15534,20.5358132 28.7447574,22.050394 C30.7897637,23.3022532 33.1724583,23.8908513 35.5656617,23.7353651 C36.3145814,23.6881332 37.0570636,23.5676527 37.7824556,23.3756521 L38.6729625,23.2052618 L38.6729625,23.2052618 L38.6729625,23.2052618 L39.0329547,23.2052618 L40.4539764,22.8455489 C41.4036493,22.6311741 42.3997695,22.8233791 43.2012851,23.3756521 L43.3718077,23.3756521 C43.4268355,23.3553646 43.4873025,23.3553646 43.5423303,23.3756521 L43.7128529,23.3756521 C43.9091164,23.5666276 44.0867547,23.7758246 44.2433677,24.0004167 C44.5338877,24.53052 44.3002086,25.0038264 43.5423303,25.4203361 C42.4443253,25.9595966 41.2156544,26.1762527 39.9992495,26.0451007 L37.7824556,25.7800491 L39.3739999,28.3548363 L39.9803025,28.3548363 L43.1633912,28.619888 C44.7179126,28.7131384 46.2704159,28.4067895 47.6727668,27.7300718 C48.5894574,27.3515465 49.1346183,26.402146 48.9990537,25.4203361 C48.8601094,24.4611017 47.6980294,23.3630306 45.5128138,22.126123 Z" id="Path" fill="#FFFFFF"></path>
                    <path d="M34.5213545,26.8459437 L31.1487962,27.2813856 C31.8795393,27.8566951 32.5184169,28.5397638 33.0434919,29.3071374 C33.4237361,29.6738971 33.5883751,30.210347 33.4792719,30.7270568 C33.3764641,31.1772213 33.0872069,31.5625984 32.6834997,31.7872634 C32.148492,32.0943035 31.5379941,32.2451698 30.9214328,32.2227053 C30.0587428,32.2789018 29.1924026,32.221615 28.3446467,32.052315 C26.4785908,31.573528 24.6916921,30.8274388 23.0394989,29.8372406 C21.609674,29.1293078 20.3642509,28.0987418 19.4016833,26.8270114 C19.0867175,26.4233054 18.9315844,25.9178288 18.9659033,25.407092 C19.0321662,24.9175497 19.3276398,24.4887423 19.7616755,24.2522242 C20.3169181,23.9802836 20.924517,23.8317311 21.5426894,23.8167822 C22.4103967,23.7611188 23.281314,23.8507025 24.1194754,24.0818338 C25.2844718,24.2894166 26.4179412,24.6457371 27.4920337,25.1420403 L28.3825406,23.2488144 C26.5686729,22.4440866 24.6580566,21.8777101 22.6984537,21.5638433 C21.4102646,21.3395219 20.1020986,21.2506864 18.7953807,21.2987917 C17.7773989,21.3544306 16.7828492,21.625461 15.8775494,22.0939466 C15.2028131,22.4498337 14.6931722,23.0541384 14.4565277,23.7789177 C14.2881233,24.5668663 14.4162901,25.3891938 14.8165199,26.0886533 C15.4105465,27.0615608 16.159293,27.9312235 17.0333138,28.6634406 C18.1599441,29.6314577 19.3783082,30.4874555 20.6711294,31.2192956 C22.0967537,32.0801532 23.6079823,32.7907679 25.180505,33.3397086 C26.635347,33.9314559 28.1460799,34.3754444 29.6898806,34.6649668 C31.0034054,34.8916679 32.3406221,34.9489327 33.6687414,34.8353571 C34.715399,34.7702767 35.7390212,34.5000957 36.6813075,34.0402022 C37.341127,33.6902131 37.8226686,33.0784423 38.0075944,32.3552311 C38.1067247,31.5891842 37.9537683,30.811705 37.5718144,30.1401568 C36.7843653,28.8502997 35.7473074,27.7303736 34.5213545,26.8459437 L34.5213545,26.8459437 Z" id="Path" fill="#FFFFFF"></path>
                    <path d="M70.3500489,19.9735336 L40.2433353,2.63158404 C37.8314181,1.12821494 34.7733187,1.12821494 32.3614014,2.63158404 L23.7784302,7.57290372 L23.7784302,7.57290372 L10.9323938,14.9186203 L10.9323938,14.9186203 L2.0841652,20.0492626 C0.896822601,20.6929594 0.265257389,21.3745207 0.189469564,22.0939466 C0.128788266,22.2654461 0.128788266,22.4525504 0.189469564,22.6240499 C0.486650808,23.2911216 1.00078681,23.8382184 1.6483852,24.1764951 L2.14100607,24.4794113 L32.2098258,41.9349543 C34.630494,43.4074675 37.6710914,43.4074675 40.0917596,41.9349543 L55.6851047,32.9042667 L55.6851047,32.9042667 L58.4324134,31.3139569 L58.4324134,31.3139569 L70.3879428,24.4983435 C71.007166,24.1433675 71.5587835,23.6819064 72.0173811,23.1352209 C72.2190945,22.8603711 72.3551962,22.5430468 72.4152672,22.2075402 C72.3394794,21.4881143 71.6510733,20.7434454 70.3500489,19.9735336 Z M38.0265414,32.4498924 C37.8416155,33.1731036 37.3600739,33.7848744 36.7002545,34.1348635 C35.7579681,34.594757 34.7343459,34.864938 33.6876884,34.9300184 C32.359569,35.043594 31.0223523,34.9863292 29.7088276,34.7596281 C28.1650268,34.4701057 26.654294,34.0261172 25.1994519,33.4343699 C23.6269293,32.8854292 22.1157007,32.1748145 20.6900763,31.3139569 C19.3972551,30.5821168 18.178891,29.726119 17.0522607,28.7581019 C16.1782399,28.0258848 15.4294935,27.1562221 14.8354668,26.1833146 C14.435237,25.4838551 14.3070702,24.6615276 14.4754747,23.873579 C14.7121192,23.1487997 15.22176,22.544495 15.8964964,22.1886079 C16.8017962,21.7201223 17.7963459,21.4490919 18.8143277,21.393453 C20.1210456,21.3453477 21.4292116,21.4341832 22.7174007,21.6585046 C24.6770035,21.9723714 26.5876199,22.5387479 28.4014876,23.3434757 L27.5109806,25.2367016 C26.4368881,24.7403984 25.3034188,24.3840779 24.1384224,24.1764951 C23.300261,23.9453638 22.4293437,23.8557801 21.5616363,23.9114435 C20.9434639,23.9263924 20.335865,24.0749449 19.7806224,24.3468855 C19.3465868,24.5834036 19.0511131,25.012211 18.9848503,25.5017533 C18.9505313,26.0124901 19.1056645,26.5179667 19.4206303,26.9216727 C20.3831979,28.1934031 21.628621,29.2239691 23.0584459,29.9319019 C24.7261547,30.9403491 26.5326426,31.6993784 28.4204345,32.1848408 C29.2681904,32.3541408 30.1345306,32.4114277 30.9972206,32.3552311 C31.6137819,32.3776956 32.2242798,32.2268293 32.7592875,31.9197892 C33.1629947,31.6951242 33.4522519,31.3097471 33.5550597,30.8595826 C33.664163,30.3428728 33.4995239,29.8064229 33.1192797,29.4396632 C32.5942048,28.6722896 31.9553272,27.9892209 31.2245841,27.4139115 L34.5971423,26.9784695 C35.8075476,27.861165 36.8313648,28.9742656 37.6097084,30.2537504 C37.9810652,30.9220765 38.1272197,31.6921118 38.0265414,32.4498924 L38.0265414,32.4498924 Z M47.5000196,27.8493534 C46.0976687,28.5260711 44.5451654,28.8324201 42.990644,28.7391696 L39.7886083,28.3983889 L39.3528283,28.3983889 L37.761284,25.8236017 L39.9780779,26.0886533 C41.1944828,26.2198053 42.4231538,26.0031492 43.5211587,25.4638888 C44.2916683,25.047379 44.5253474,24.5740726 44.2221961,24.0439693 C44.0655831,23.8193772 43.8879448,23.6101802 43.6916813,23.4192047 L43.5211587,23.4192047 C43.4661309,23.3989172 43.4056639,23.3989172 43.3506361,23.4192047 L43.1801135,23.4192047 C42.3785979,22.8669317 41.3824777,22.6747267 40.4328049,22.8891015 L39.0117831,23.2488144 L38.651791,23.2488144 L38.651791,23.2488144 L38.651791,23.2488144 L37.761284,23.4192047 C37.035892,23.6112053 36.2934099,23.7316858 35.5444901,23.7789177 C33.1512867,23.9344039 30.7685921,23.3458058 28.7235858,22.0939466 C26.1215372,20.5667443 24.9720885,19.1783787 25.2752398,17.9288496 L25.4457624,17.304085 L25.8815424,16.6793204 L26.4120572,16.3196075 C27.1031596,15.9556195 27.8539648,15.7183696 28.628851,15.6191139 C30.0298241,15.3753347 31.4569391,15.3180397 32.8729693,15.4487236 L34.5592484,17.9288496 C33.5529211,17.8058227 32.5326878,17.863527 31.5466823,18.0992399 L30.7509102,18.4589528 C30.6958823,18.4386653 30.6354154,18.4386653 30.5803876,18.4589528 L29.955138,18.9890561 L29.6898806,19.424498 C29.5130423,19.8410077 29.809878,20.2827605 30.5803876,20.7497562 C31.4750066,21.2229236 32.4941712,21.4080825 33.4982188,21.2798594 L35.0139753,21.0148078 C35.144897,20.9847059 35.2677211,20.9265712 35.3739675,20.8444175 L35.3739675,20.8444175 L35.3739675,20.8444175 L37.2686631,20.4089755 L38.5002153,20.4089755 C40.9571938,20.2554551 43.4009762,20.87089 45.4916422,22.1696756 C47.6768578,23.4318263 48.8263065,24.6939769 48.9399883,25.9561275 C48.8777362,26.8165226 48.3129764,27.5590513 47.5000196,27.8493534 L47.5000196,27.8493534 Z M57.4282247,22.1696756 C55.9925434,22.8421448 54.4023969,23.1167718 52.8241143,22.9648305 L50.2662752,22.9648305 L49.6410256,22.7944402 L49.470503,22.7944402 L49.470503,22.7944402 L47.7842239,20.3143142 L50.0010178,20.5793659 C51.2457161,20.6560687 52.4911943,20.4421682 53.6388334,19.9546013 C54.3461865,19.5380916 54.554603,19.0332313 54.264083,18.4400206 C54.1186715,18.234484 53.9392643,18.055216 53.7335682,17.9099173 C53.7335682,17.9099173 53.7335682,17.7963237 53.7335682,17.739527 C53.6785404,17.7192394 53.6180734,17.7192394 53.5630456,17.739527 L53.392523,17.739527 C52.5651083,17.251628 51.5831147,17.0959844 50.6452143,17.304085 L49.3189274,17.5691366 L49.1484048,17.5691366 C49.0517048,17.6118951 48.9622232,17.6693744 48.8831474,17.739527 L48.8831474,17.739527 L48.8831474,17.739527 L47.9926404,17.9099173 C47.2651248,18.0917897 46.5235732,18.2121192 45.7758465,18.2696302 C43.3826431,18.4251165 40.9999485,17.8365184 38.9549423,16.5846591 C36.3023684,15.0448354 35.1213414,13.6564697 35.4118614,12.4195621 L35.582384,11.7190685 L36.018164,11.1889652 L36.6434136,10.8292523 C37.3109481,10.4682628 38.0249885,10.2007053 38.7654727,10.0340974 C40.1760768,9.88186038 41.5989868,9.88186038 43.0095909,10.0340974 L44.7716579,12.4195621 C43.728702,12.2917156 42.6705358,12.3819768 41.664357,12.6846137 L40.9633196,12.9496654 C40.8496379,12.9496654 40.7612188,12.9496654 40.6980622,12.9496654 L40.0728127,13.4797686 L39.8075553,13.8394815 C39.6938736,14.2559912 40.0159718,14.697744 40.7738501,15.1647397 C41.6694739,15.6398462 42.6798688,15.8561915 43.6916813,15.7895043 L44.2221961,15.7895043 L45.1884909,15.5244526 C45.2760581,15.5071078 45.3661811,15.5071078 45.4537483,15.5244526 L45.4537483,15.5244526 L45.4537483,15.5244526 L45.4537483,15.5244526 L48.5610491,14.8996881 C51.0282223,14.8208464 53.4627393,15.4800954 55.552476,16.792914 C57.7376917,18.0550646 58.8871403,19.2667292 59.0008221,20.4279078 C58.8680108,21.2724061 58.2528957,21.9610969 57.4282247,22.1886079 L57.4282247,22.1696756 Z" id="Shape" fill="#FF65A7" fill-rule="nonzero"></path>
                    <path d="M0.170522607,25.0284468 L0.170522607,22.6429821 C0.467703851,23.3100539 0.981839854,23.8571506 1.62943825,24.1954274 L2.12205911,24.4983435 L32.2098258,41.9349543 C34.630494,43.4074675 37.6710914,43.4074675 40.0917596,41.9349543 L55.6851047,32.9042667 L55.6851047,32.9042667 L58.4324134,31.3139569 L58.4324134,31.3139569 L70.3879428,24.4983435 C71.007166,24.1433675 71.5587835,23.6819064 72.0173811,23.1352209 C72.2190945,22.8603711 72.3551962,22.5430468 72.4152672,22.2075402 L72.4152672,27.4328437 L72.4152672,27.4328437 L72.4152672,32.6581473 C72.4152672,33.3018441 71.783702,34.0402022 70.5205715,34.8732216 L40.2054414,52.3098324 C37.835058,53.8382831 34.7886257,53.8382831 32.4182423,52.3098324 L2.31152867,34.9678829 C0.770509558,34.0843775 0.138944347,33.2261151 0.41683304,32.3930957 L0.41683304,27.7925566 C0.33261728,27.5666405 0.33261728,27.3179792 0.41683304,27.0920631 L0.170522607,25.0284468 Z" id="Path" fill="url(#linearGradient-17)"></path>
                </g>
            </g>
        </g>
    </g>
</svg>