<?xml version="1.0" encoding="UTF-8"?>
<svg width="90px" height="23px" viewBox="0 0 90 23" version="1.1" xmlns="http://www.w3.org/2000/svg" xmlns:xlink="http://www.w3.org/1999/xlink">
    <!-- Generator: Sketch 54.1 (76490) - https://sketchapp.com -->
    <title>Logo_altice</title>
    <desc>Created with Sketch.</desc>
    <g id="Page-1" stroke="none" stroke-width="1" fill="none" fill-rule="evenodd">
        <g id="Logo_altice" fill-rule="nonzero">
            <g id="Group" transform="translate(33.065479, 0.220225)" fill="#191919">
                <path d="M4.11366036,16.5188067 C3.99334435,16.0374498 3.99334435,15.4357535 3.99334435,14.5933788 L3.99334435,0.513686933 L0.0229167414,0.513686933 L0.0229167414,14.4730395 C0.0229167414,16.157789 0.263548707,17.7221992 0.624496681,18.8052524 C1.46670859,20.9713589 3.27144843,22.1747513 5.67776819,22.1747513 C6.03871629,22.1747513 6.39966414,22.1747513 6.88092802,22.0544121 L6.88092802,18.4442347 C6.76061198,18.4442347 6.64029621,18.4442347 6.51998017,18.4442347 C5.19650431,18.4442347 4.35429233,17.7221992 4.11366036,16.5188067 Z" id="Path"></path>
                <path d="M22.6423226,16.5188067 C22.5220066,16.0374498 22.5220066,15.4357535 22.5220066,14.5933788 L22.5220066,6.28997077 L18.551579,6.28997077 L18.551579,14.4730395 C18.551579,16.157789 18.792211,17.7221992 19.1531589,18.8052524 C19.9953709,20.9713589 21.8001106,22.1747513 24.2064305,22.1747513 C24.5673784,22.1747513 25.0486425,22.1747513 25.4095903,22.0544121 L25.4095903,18.4442347 C25.2892743,18.4442347 25.1689583,18.4442347 25.0486425,18.4442347 C23.8454824,18.4442347 23.0032707,17.7221992 22.6423226,16.5188067 Z" id="Path"></path>
                <path d="M12.8967274,16.2781283 C12.7764116,15.7967713 12.7764116,14.9543965 12.7764116,13.8713433 L12.7764116,9.90014817 L16.0249433,9.90014817 L16.0249433,6.41031002 L12.7764116,6.41031002 L12.7764116,2.55945413 L8.80598379,2.55945413 L8.80598379,6.41031002 L7.00124405,6.41031002 L7.00124405,9.90014817 L8.80598379,9.90014817 L8.80598379,14.4730395 C8.80598379,15.5560928 8.92629983,16.639146 9.04661586,17.3611815 C9.76851181,20.6103411 11.8138836,22.1747513 15.0624153,22.1747513 C15.5436794,22.1747513 16.0249433,22.1747513 16.3858911,22.0544121 L16.3858911,18.4442347 C16.1452593,18.4442347 16.0249433,18.4442347 15.7843112,18.4442347 C14.0998875,18.5645739 13.2576755,17.8425385 12.8967274,16.2781283 Z" id="Path"></path>
                <path d="M20.4766347,4.72556057 C21.6797948,4.72556057 22.7626386,3.64250734 22.7626386,2.43911488 C22.7626386,1.23572241 21.8001106,0.152669194 20.4766347,0.152669194 C19.2734749,0.152669194 18.1906311,1.23572241 18.1906311,2.43911488 C18.1906311,3.64250734 19.2734749,4.72556057 20.4766347,4.72556057 Z" id="Path"></path>
                <path d="M55.8495354,20.2493234 C54.1651117,21.8137336 51.8791078,22.4154298 49.5931042,22.4154298 C44.5398326,22.4154298 40.8100371,19.4069487 40.8100371,14.1120218 C40.8100371,9.4187912 44.1788847,5.80861379 48.8712083,5.80861379 C53.6838478,5.80861379 56.5714314,8.9374342 56.6917474,13.5103256 C56.6917474,14.8340573 56.5714314,15.5560928 56.5714314,15.5560928 L44.7804647,15.5560928 C45.0210965,17.60186 46.9461525,18.9255917 49.5931042,18.9255917 C51.1572119,18.9255917 52.4806878,18.4442347 53.5635318,17.60186 L55.8495354,20.2493234 Z M52.7213198,12.4272724 C52.360372,10.5018444 50.9165801,9.29845194 48.7508922,9.29845194 C46.5852044,9.29845194 45.1414125,10.6221837 44.7804647,12.4272724 L52.7213198,12.4272724 Z" id="Shape"></path>
                <path d="M38.1630851,17.60186 C37.2005573,18.3238955 35.9973975,18.8052524 34.7942374,18.8052524 C31.9066539,18.8052524 30.1019139,17.0001637 30.1019139,14.1120218 C30.1019139,11.4645584 31.9066539,9.53913043 34.5536056,9.53913043 C35.8770815,9.53913043 36.8396092,10.0204874 37.8021372,10.7425229 L40.569405,8.21539874 C38.884981,6.65098851 36.9599253,6.04929228 34.5536056,6.04929228 C29.740966,6.04929228 26.1314863,9.53913043 26.1314863,14.2323611 C26.1314863,19.1662702 29.500334,22.5357691 34.6739216,22.5357691 C36.8396092,22.5357691 39.0052971,21.9340729 40.569405,20.4900019 L38.1630851,17.60186 Z" id="Path"></path>
            </g>
            <g id="SVGID_1_-link" transform="translate(0.000000, 0.775281)" fill="#0074E4">
                <g id="Group">
                    <path d="M15.7992008,20.5706553 C18.1930279,19.3746869 20.0123366,17.3654601 20.9698674,15.0692009 C21.7358921,16.2651692 22.5497933,17.4132989 23.5073242,18.4179123 C24.5127316,19.4703644 25.5660156,20.2357841 26.7150526,20.7620102 C28.0077192,21.3839138 29.4440156,21.6709461 30.9760649,21.6709461 L30.9760649,17.1262665 C29.3482624,17.1262665 28.0555958,16.5522017 26.8108057,15.2127172 C25.518139,13.8732326 24.4648551,11.9596833 23.315818,9.90261777 C22.8370526,9.04152057 22.3582872,8.18042338 21.8316452,7.31932617 L21.8316452,0 L17.2833737,0 L17.2833737,2.00922679 C16.7567317,1.62651693 16.1343366,1.24380706 15.5119415,1.0046134 C14.1235218,0.382709866 12.639349,0.0478387331 10.96367,0.0478387331 C9.33586749,0.0478387331 7.70806503,0.430548599 6.2238922,1.19596833 C5.45786751,1.57867819 4.78759591,2.05706553 4.11732431,2.5832916 C3.35129962,3.25303386 2.63315147,4.01845359 2.05863295,4.83171205 C1.53199099,5.59713179 1.1011021,6.50606772 0.765966298,7.41500365 C-0.14368802,10.1418114 0.0478181528,13.0599742 1.34048481,15.6911045 C2.58527493,18.2265574 4.78759591,20.1879454 7.5644354,21.1447201 C10.2455218,22.053656 13.2138675,21.862301 15.7992008,20.5706553 Z M17.1414583,10.7427932 C17.1414583,13.0521238 15.8456191,15.2652323 13.6858872,16.3717866 L13.6858872,16.3717866 C10.6142684,17.9113403 6.82273891,16.6123419 5.28692953,13.5332344 C4.56701887,12.0417918 4.42303675,10.3097938 4.95097122,8.72212898 C5.4789057,7.13446419 6.5827687,5.83546572 8.11857809,5.11379991 C8.98247087,4.68080042 9.94235175,4.44024515 10.8542386,4.44024515 C12.7260062,4.44024515 14.1658276,5.06568885 15.5576549,6.50902048 C15.7016369,6.65335365 15.8456191,6.79768681 15.9896012,6.99013103 C16.9494821,8.19290738 17.1414583,9.58812796 17.1894523,10.3097938 L17.1414583,10.7427932 Z" id="SVGID_1_"></path>
                </g>
            </g>
        </g>
    </g>
</svg>